<svg width="83" height="83" viewBox="0 0 83 83" fill="none" xmlns="http://www.w3.org/2000/svg">
<g clip-path="url(#clip0_202_2210)">
<path d="M41.4989 82.9813C64.409 82.9813 82.9812 64.409 82.9812 41.499C82.9812 18.5889 64.409 0.0166626 41.4989 0.0166626C18.5889 0.0166626 0.0166016 18.5889 0.0166016 41.499C0.0166016 64.409 18.5889 82.9813 41.4989 82.9813Z" fill="#C3D6EA"/>
<path d="M41.5 69.8268C57.1445 69.8268 69.8268 57.1445 69.8268 41.5C69.8268 25.8556 57.1445 13.1732 41.5 13.1732C25.8556 13.1732 13.1732 25.8556 13.1732 41.5C13.1732 57.1445 25.8556 69.8268 41.5 69.8268Z" stroke="#961914" stroke-width="0.5" stroke-miterlimit="10"/>
<path d="M45.3546 3.4834L49.7398 4.173L49.6337 4.88029L46.0796 4.31446L45.7967 5.97658L47.6002 6.2595C48.2899 6.36559 48.785 6.59546 49.1032 6.9491C49.4215 7.28506 49.5276 7.72711 49.4392 8.27526C49.3508 8.84109 49.0856 9.24778 48.6435 9.49533C48.2014 9.74288 47.6179 9.79593 46.893 9.68983L44.3998 9.30083L45.3546 3.4834ZM46.9991 9.03559C47.4765 9.10632 47.8478 9.07096 48.1307 8.9295C48.4136 8.78804 48.5728 8.54049 48.6258 8.18685C48.7319 7.47956 48.3075 7.05519 47.335 6.89605L45.7083 6.63082L45.3723 8.75268L46.9991 9.03559Z" fill="#961914"/>
<path d="M54.8323 7.69174C55.0445 8.08074 55.0445 8.55816 54.8499 9.12399L53.9658 11.6525L53.2409 11.405L53.4354 10.8568C53.2409 11.016 53.011 11.0867 52.7281 11.1221C52.4629 11.1398 52.1623 11.1044 51.844 10.9806C51.3843 10.8215 51.0306 10.5739 50.8361 10.238C50.6239 9.91969 50.5886 9.56604 50.73 9.19472C50.8538 8.82339 51.1013 8.57584 51.455 8.45207C51.8086 8.32829 52.2684 8.36366 52.8519 8.55816L54.0543 8.98253L54.1073 8.84108C54.2134 8.50511 54.2134 8.2222 54.0896 7.99233C53.9658 7.74478 53.7183 7.56796 53.347 7.44419C53.0994 7.35577 52.8342 7.30273 52.569 7.30273C52.3037 7.30273 52.0562 7.33809 51.844 7.4265L51.7202 6.75458C52.0031 6.64849 52.3037 6.61312 52.6397 6.63081C52.9756 6.64849 53.3116 6.70154 53.6476 6.82531C54.2311 7.00213 54.6201 7.30273 54.8323 7.69174ZM52.9933 10.5032C53.2586 10.4502 53.4707 10.3087 53.6476 10.1142L53.8597 9.53068L52.6927 9.12399C52.0562 8.89412 51.6495 9.00021 51.508 9.44227C51.4373 9.65445 51.455 9.84896 51.5788 10.0258C51.7025 10.2026 51.897 10.3441 52.1976 10.4501C52.4629 10.5386 52.7458 10.5562 52.9933 10.5032Z" fill="#961914"/>
<path d="M60.7028 10.4148C60.915 10.7507 61.0034 11.1044 61.0034 11.5111C61.0034 11.9001 60.8973 12.2891 60.6674 12.6781C60.4376 13.0671 60.1723 13.3677 59.8364 13.5799C59.5004 13.7921 59.1291 13.8805 58.7401 13.8805C58.3511 13.8805 57.962 13.7744 57.5907 13.5622C57.3078 13.4031 57.0956 13.2086 56.9188 12.9787C56.742 12.7488 56.6359 12.4659 56.5828 12.183L55.4512 14.1811L54.7439 13.7921L57.7145 8.48743L58.3864 8.85875L58.0505 9.47763C58.3334 9.35385 58.6163 9.30081 58.9169 9.31849C59.2175 9.33617 59.5181 9.44226 59.801 9.6014C60.2077 9.81359 60.4906 10.0965 60.7028 10.4148ZM58.6693 13.1201C58.9346 13.1201 59.1821 13.0494 59.412 12.908C59.6419 12.7665 59.8364 12.5543 59.9778 12.2891C60.1193 12.0239 60.2077 11.7586 60.2077 11.4757C60.2077 11.1928 60.137 10.9629 60.0132 10.7331C59.8717 10.5032 59.6772 10.3264 59.4297 10.1849C59.1821 10.0435 58.9346 9.97273 58.6693 9.99041C58.4041 10.0081 58.1566 10.0611 57.9267 10.2026C57.6968 10.3441 57.5023 10.5386 57.3609 10.8215C57.2194 11.0867 57.131 11.3519 57.131 11.6348C57.131 11.9001 57.2017 12.1476 57.3255 12.3775C57.4669 12.6074 57.6438 12.7842 57.8913 12.9256C58.1389 13.0494 58.4041 13.1201 58.6693 13.1201Z" fill="#961914"/>
<path d="M65.6714 14.3048C65.7245 14.7469 65.5653 15.2066 65.194 15.6664L63.4788 17.7352L62.8953 17.2578L63.2666 16.798C63.0368 16.8688 62.7892 16.8688 62.524 16.798C62.2588 16.7273 61.9935 16.5858 61.7283 16.356C61.3393 16.0377 61.1094 15.6841 61.0387 15.3127C60.968 14.9414 61.0387 14.6054 61.2862 14.2872C61.5338 13.9866 61.8521 13.8274 62.2234 13.8274C62.5947 13.8274 63.0191 14.0219 63.4965 14.4109L64.4867 15.2243L64.5928 15.1005C64.805 14.8353 64.9111 14.5701 64.858 14.2872C64.805 14.0042 64.6458 13.7567 64.3453 13.5091C64.1331 13.35 63.9209 13.2086 63.6733 13.1201C63.4258 13.0317 63.1782 12.9787 62.966 12.9787L63.0898 12.3068C63.3904 12.3068 63.691 12.3775 63.9916 12.5013C64.2922 12.625 64.5928 12.8019 64.8757 13.0317C65.3354 13.4561 65.6007 13.8628 65.6714 14.3048ZM62.966 16.3206C63.2313 16.356 63.4788 16.3029 63.7087 16.1792L64.0977 15.7017L63.1429 14.906C62.6124 14.464 62.2057 14.4286 61.9228 14.7823C61.7813 14.9591 61.7283 15.1536 61.7813 15.3658C61.8344 15.578 61.9758 15.7725 62.2234 15.967C62.4709 16.1615 62.7185 16.2852 62.966 16.3206Z" fill="#961914"/>
<path d="M68.1646 16.1085L68.6951 16.7273L67.2629 17.9474L68.9073 19.8748L70.3395 18.6547L70.87 19.2736L67.4927 22.1558L66.9623 21.5369L68.3768 20.3345L66.7324 18.4071L65.3178 19.6095L64.7874 18.9907L68.1646 16.1085Z" fill="#961914"/>
<path d="M72.4437 21.5192L72.8504 22.2265L70.0389 23.8355L74.2119 24.6135L74.5656 25.2501L70.6932 27.4427L70.3042 26.7354L73.1156 25.1263L68.9603 24.366L68.589 23.7294L72.4437 21.5192Z" fill="#961914"/>
<path d="M75.6619 27.6726L75.9271 28.4329L74.1412 29.0518L74.9723 31.4566L76.7582 30.8377L77.0234 31.598L72.815 33.048L72.5498 32.2876L74.318 31.6865L73.5046 29.2817L71.7364 29.8829L71.4712 29.1225L75.6619 27.6726Z" fill="#961914"/>
<path d="M77.6776 37.2917C77.4301 37.663 77.0057 37.8928 76.4222 37.9813L73.7699 38.3879L73.6461 37.6276L74.2296 37.5392C73.9997 37.4331 73.8229 37.274 73.6638 37.0441C73.5223 36.8142 73.4162 36.5313 73.3632 36.1954C73.2924 35.7003 73.3455 35.2936 73.54 34.9576C73.7345 34.6217 74.0174 34.4271 74.4064 34.3741C74.7954 34.3211 75.1314 34.4095 75.4143 34.657C75.6972 34.9046 75.874 35.3289 75.9801 35.9478L76.1746 37.2032L76.3338 37.1856C76.6697 37.1325 76.9173 36.9911 77.0764 36.7612C77.2179 36.5313 77.2709 36.2307 77.2179 35.8417C77.1825 35.5765 77.0941 35.3289 76.9703 35.0991C76.8465 34.8692 76.7051 34.6747 76.5283 34.5156L77.0764 34.0912C77.2886 34.2857 77.4831 34.5332 77.6246 34.8338C77.766 35.1344 77.8721 35.4527 77.9252 35.8064C78.0136 36.4252 77.9252 36.9203 77.6776 37.2917ZM74.3357 36.9911C74.5125 37.1856 74.7247 37.327 74.9899 37.3801L75.6088 37.2917L75.4143 36.0716C75.3082 35.3997 75.0253 35.0991 74.5832 35.1698C74.371 35.2052 74.1942 35.3113 74.1058 35.5058C73.9997 35.7003 73.982 35.9478 74.0174 36.2484C74.0528 36.549 74.1765 36.7966 74.3357 36.9911Z" fill="#961914"/>
<path d="M80.7897 45.1248L80.7366 45.8498L73.0272 42.5786L73.0803 41.8536L80.7897 45.1248Z" fill="#961914"/>
<path d="M74.9368 51.738L75.2905 50.5709L72.815 49.8283L73.0449 49.0326L78.6855 50.6947L78.4556 51.4904L76.0155 50.7654L75.6618 51.9501L77.5892 54.4433L77.3416 55.3097L75.2021 52.4983L71.6656 53.7537L71.9309 52.8342L74.9368 51.738Z" fill="#961914"/>
<path d="M73.1509 59.9248C72.815 60.137 72.4613 60.2431 72.0723 60.2608C71.6833 60.2785 71.2943 60.1724 70.8876 59.9602C70.4986 59.748 70.1803 59.4828 69.9681 59.1468C69.7559 58.8108 69.6499 58.4572 69.6322 58.0682C69.6322 57.6792 69.7206 57.2902 69.9151 56.9189C70.0565 56.6359 70.251 56.4061 70.4809 56.2293C70.7108 56.0524 70.976 55.9463 71.2766 55.8756L69.2432 54.797L69.6145 54.0897L74.9899 56.9365L74.6362 57.6261L74.0173 57.2902C74.1588 57.5554 74.2118 57.856 74.1942 58.1566C74.1765 58.4572 74.0881 58.7578 73.9289 59.0407C73.7344 59.412 73.4692 59.7126 73.1509 59.9248ZM70.3925 57.9444C70.4102 58.2097 70.4809 58.4572 70.6224 58.6871C70.7638 58.9169 70.976 59.0938 71.2589 59.2352C71.5242 59.3767 71.8071 59.4474 72.0723 59.4474C72.3375 59.4474 72.5851 59.3767 72.815 59.2352C73.0271 59.0938 73.204 58.8993 73.3454 58.6517C73.4692 58.4042 73.5399 58.1566 73.5222 57.8914C73.5046 57.6261 73.4338 57.3786 73.2924 57.1664C73.1509 56.9365 72.9387 56.7597 72.6735 56.6183C72.4083 56.4768 72.1254 56.4061 71.8601 56.4061C71.5949 56.4061 71.3473 56.4768 71.1175 56.6183C70.8876 56.7597 70.7108 56.9542 70.587 57.2018C70.4455 57.4316 70.3925 57.6969 70.3925 57.9444Z" fill="#961914"/>
<path d="M67.8109 60.8443C68.1823 60.6851 68.5713 60.6498 68.9603 60.7028C69.3493 60.7558 69.7206 60.9327 70.0566 61.1979C70.3925 61.4631 70.6401 61.7814 70.7815 62.1527C70.923 62.5241 70.976 62.9131 70.9053 63.3021C70.8346 63.6911 70.6755 64.0624 70.3925 64.416C70.1273 64.7697 69.7913 65.0172 69.4377 65.1764C69.0664 65.3355 68.695 65.3709 68.2884 65.3178C67.8994 65.2648 67.528 65.088 67.1921 64.8227C66.8561 64.5575 66.6086 64.2392 66.4671 63.8679C66.3256 63.4966 66.2726 63.1076 66.3433 62.7186C66.4141 62.3296 66.5732 61.9582 66.8561 61.6046C67.1213 61.2509 67.4396 61.0034 67.8109 60.8443ZM67.0683 62.7539C67.0329 63.0192 67.0683 63.2667 67.1744 63.5143C67.2805 63.7618 67.4573 63.974 67.6872 64.1685C67.917 64.363 68.1823 64.4868 68.4475 64.5221C68.7127 64.5575 68.9603 64.5398 69.2078 64.4514C69.4554 64.3453 69.6499 64.1862 69.8267 63.974C70.0035 63.7441 70.1096 63.5143 70.145 63.249C70.1803 62.9838 70.1627 62.7362 70.0566 62.4887C69.9505 62.2411 69.7737 62.0113 69.5438 61.8345C69.2962 61.64 69.0487 61.5162 68.7835 61.4808C68.5182 61.4454 68.253 61.4631 68.0231 61.5515C67.7756 61.64 67.5634 61.7991 67.3866 62.029C67.2274 62.2588 67.1037 62.5064 67.0683 62.7539Z" fill="#961914"/>
<path d="M64.4867 70.3396L61.5338 67.0153L62.135 66.4849L64.6105 69.2963L66.0428 68.0232L65.4239 67.2452C65.0526 66.7855 64.752 66.3611 64.5575 66.0251C64.3453 65.6715 64.2392 65.3532 64.2038 65.0526C64.1861 64.752 64.2922 64.5045 64.5221 64.2923C64.6282 64.2039 64.7696 64.0978 64.9465 64.027L65.3532 64.5752C65.2824 64.6106 65.2294 64.6459 65.1763 64.6813C64.9995 64.8227 64.9465 65.0172 64.9995 65.2294C65.0526 65.4416 65.141 65.6715 65.3001 65.9013C65.4593 66.1312 65.6891 66.4318 65.9897 66.8208L67.0153 68.1116L64.4867 70.3396Z" fill="#961914"/>
<path d="M62.3295 71.9664L61.6399 72.3731L59.9778 69.597L59.3059 73.7699L58.687 74.1413L56.406 70.3219L57.0956 69.9152L58.7577 72.6913L59.4297 68.5183L60.0662 68.1293L62.3295 71.9664Z" fill="#961914"/>
<path d="M53.6829 73.5224L54.5493 73.1865L53.8774 71.4359L54.62 71.153L56.2114 75.3083L55.4511 75.5912L54.7792 73.8407L53.8951 74.1767L53.2231 76.44L52.4098 76.7406L53.2231 74.1413L50.7123 72.6206L51.5964 72.2847L53.6829 73.5224Z" fill="#961914"/>
<path d="M37.6806 79.6227L33.2954 78.9155L33.4192 78.2082L36.9733 78.774L37.2385 77.1119L35.435 76.829C34.7453 76.7229 34.2502 76.493 33.932 76.1393C33.6137 75.8034 33.5076 75.3437 33.596 74.8132C33.6844 74.2474 33.9497 73.8407 34.3917 73.5931C34.8338 73.3456 35.4173 73.2925 36.1246 73.3986L38.6177 73.7876L37.6806 79.6227ZM36.0538 74.0705C35.5764 73.9998 35.2051 74.0352 34.9222 74.1766C34.6393 74.3181 34.4801 74.5656 34.4271 74.9193C34.321 75.6266 34.7453 76.0509 35.7179 76.2101L37.3446 76.4753L37.6806 74.3534L36.0538 74.0705Z" fill="#961914"/>
<path d="M28.2206 75.3967C28.0084 75.0077 28.0084 74.5303 28.2029 73.9645L29.0871 71.4359L29.812 71.6835L29.6175 72.2316C29.812 72.0725 30.0419 72.0017 30.3248 71.9664C30.59 71.9487 30.8906 71.9841 31.2089 72.1078C31.6863 72.267 32.0223 72.5145 32.2168 72.8505C32.4113 73.1688 32.4467 73.5224 32.3229 73.8937C32.1991 74.2651 31.9516 74.5126 31.5979 74.6364C31.2443 74.7602 30.7845 74.7248 30.201 74.5303L28.9986 74.1059L28.9456 74.2651C28.8395 74.5833 28.8395 74.8839 28.9633 75.1138C29.087 75.3613 29.3346 75.5382 29.7059 75.6619C29.9535 75.7504 30.2187 75.7857 30.4839 75.8034C30.7492 75.8034 30.9967 75.768 31.2089 75.6796L31.3327 76.3692C31.0498 76.4576 30.7492 76.5107 30.4132 76.493C30.0773 76.4753 29.7413 76.4223 29.4053 76.2985C28.8218 76.0863 28.4151 75.7857 28.2206 75.3967ZM30.0596 72.5852C29.812 72.6383 29.5821 72.7621 29.4053 72.9743L29.1931 73.5578L30.3602 73.9645C30.9967 74.1943 31.4034 74.0882 31.5449 73.6639C31.6156 73.4517 31.5979 73.2572 31.4741 73.0804C31.3504 72.9035 31.1559 72.7621 30.8553 72.656C30.59 72.5499 30.3071 72.5322 30.0596 72.5852Z" fill="#961914"/>
<path d="M22.3502 72.656C22.138 72.32 22.0496 71.9663 22.0496 71.5597C22.0496 71.153 22.1557 70.7816 22.3855 70.3926C22.5977 70.0036 22.8806 69.703 23.2166 69.4908C23.5525 69.2787 23.9239 69.1902 24.3129 69.1902C24.7019 69.1902 25.0909 69.2963 25.4622 69.5085C25.7451 69.6677 25.9573 69.8622 26.1341 70.092C26.311 70.3219 26.4171 70.6048 26.4524 70.8877L27.5841 68.8896L28.2914 69.2787L25.3031 74.5656L24.6312 74.1943L24.9848 73.5754C24.7019 73.6992 24.419 73.7522 24.1184 73.7169C23.8178 73.6992 23.5172 73.5931 23.2343 73.434C22.8453 73.2571 22.5447 72.9919 22.3502 72.656ZM24.4013 69.9683C24.1361 69.9683 23.8885 70.039 23.6586 70.1804C23.4288 70.3219 23.2343 70.5341 23.0928 70.7993C22.9337 71.0646 22.8629 71.3298 22.8629 71.6127C22.8629 71.8779 22.9337 72.1255 23.0574 72.3554C23.1989 72.5852 23.3757 72.762 23.6233 72.9035C23.8708 73.045 24.1184 73.1157 24.3836 73.098C24.6488 73.0803 24.8964 73.0273 25.1263 72.8858C25.3561 72.7444 25.5506 72.5499 25.6921 72.2669C25.8512 72.0017 25.922 71.7365 25.922 71.4536C25.922 71.1883 25.8689 70.9408 25.7274 70.7109C25.586 70.481 25.4092 70.3042 25.1616 70.1628C24.9141 70.0213 24.6488 69.9506 24.4013 69.9683Z" fill="#961914"/>
<path d="M17.3992 68.7658C17.3462 68.3238 17.5053 67.8641 17.8766 67.4043L19.5918 65.3355L20.1753 65.8306L19.804 66.2903C20.0339 66.2196 20.2814 66.2196 20.5467 66.2903C20.8119 66.3611 21.0594 66.5025 21.3247 66.7324C21.7137 67.0507 21.9435 67.4043 22.0143 67.7757C22.085 68.147 22.0143 68.5006 21.749 68.8012C21.5015 69.1018 21.1832 69.2609 20.8119 69.2609C20.4406 69.2609 20.0162 69.0664 19.5388 68.6774L18.5486 67.8641L18.4425 67.9878C18.2303 68.2531 18.1242 68.5183 18.1596 68.8012C18.1949 69.0664 18.3717 69.3317 18.6723 69.5792C18.8845 69.7384 19.0967 69.8798 19.3443 69.9682C19.5918 70.0566 19.8394 70.1097 20.0516 70.1097L19.9278 70.7816C19.6272 70.7816 19.3266 70.7109 19.026 70.5871C18.7254 70.4633 18.4248 70.2865 18.1419 70.0566C17.7175 69.6146 17.4523 69.2079 17.3992 68.7658ZM20.0869 66.7501C19.8217 66.7147 19.5741 66.7501 19.3443 66.8915L18.9553 67.369L19.9101 68.1647C20.4406 68.6067 20.8472 68.6421 21.1302 68.2884C21.2716 68.1116 21.3247 67.9171 21.2716 67.7226C21.2186 67.5281 21.0771 67.3159 20.8296 67.1214C20.5997 66.9092 20.3521 66.8031 20.0869 66.7501Z" fill="#961914"/>
<path d="M14.8882 66.9623L14.3578 66.3435L15.79 65.1234L14.1456 63.196L12.731 64.4161L12.2006 63.7972L15.5955 60.915L16.1083 61.5339L14.6937 62.7363L16.3382 64.6637L17.7528 63.4613L18.2832 64.0801L14.8882 66.9623Z" fill="#961914"/>
<path d="M10.6446 61.587L10.2379 60.8797L13.0493 59.2706L8.87635 58.5103L8.52271 57.8737L12.3951 55.6635L12.7841 56.3707L9.97264 57.9798L14.1456 58.7402L14.517 59.3767L10.6446 61.587Z" fill="#961914"/>
<path d="M7.42648 55.3805L7.16125 54.6202L8.94715 54.0013L8.13377 51.6142L6.34787 52.2154L6.08264 51.4551L10.291 50.0228L10.5562 50.7832L8.78801 51.3843L9.60139 53.7891L11.3696 53.1879L11.6348 53.9483L7.42648 55.3805Z" fill="#961914"/>
<path d="M5.41062 45.8144C5.65817 45.4431 6.08254 45.2132 6.66606 45.1248L9.31838 44.7181L9.44215 45.4785L8.85864 45.5669C9.08851 45.673 9.26533 45.8321 9.42447 46.062C9.56593 46.2918 9.67202 46.5748 9.72507 46.9107C9.7958 47.4058 9.74275 47.8125 9.54825 48.1485C9.35374 48.4844 9.07083 48.6789 8.68182 48.732C8.29281 48.785 7.95685 48.6966 7.67394 48.4491C7.39102 48.2015 7.2142 47.7772 7.10811 47.1583L6.91361 45.9028L6.75447 45.9205C6.4185 45.9736 6.17095 46.115 6.0295 46.3449C5.88804 46.5748 5.83499 46.8754 5.88804 47.2644C5.9234 47.5296 6.01182 47.7772 6.13559 48.007C6.25937 48.2369 6.40082 48.4314 6.57764 48.5905L6.0295 49.0149C5.81731 48.8204 5.62281 48.5728 5.48135 48.2723C5.33989 47.9717 5.2338 47.6534 5.18075 47.2997C5.09234 46.6809 5.16307 46.1858 5.41062 45.8144ZM8.77023 46.115C8.59341 45.9205 8.38122 45.7791 8.11599 45.726L7.49712 45.8144L7.69162 47.0345C7.79771 47.7064 8.08063 48.007 8.52268 47.9363C8.75255 47.9009 8.91169 47.7948 9.0001 47.6003C9.08851 47.4058 9.12387 47.1583 9.07083 46.8577C9.03546 46.5571 8.92937 46.3095 8.77023 46.115Z" fill="#961914"/>
<path d="M2.31628 37.9282L2.36933 37.2032L10.0787 40.4921L10.0257 41.1994L2.31628 37.9282Z" fill="#961914"/>
<path d="M8.20443 31.262L7.85078 32.4467L10.3263 33.1717L10.0964 33.9674L4.45581 32.3053L4.68568 31.5096L7.12582 32.2346L7.47946 31.0499L5.5521 28.5567L5.79965 27.6902L7.93919 30.5194L11.4756 29.264L11.2104 30.1834L8.20443 31.262Z" fill="#961914"/>
<path d="M9.955 23.1813C10.291 22.9691 10.6446 22.863 11.0336 22.8453C11.4226 22.8277 11.8116 22.9338 12.2183 23.1459C12.6073 23.3581 12.9256 23.6234 13.1378 23.9593C13.35 24.2953 13.4561 24.6489 13.4737 25.0379C13.4737 25.4269 13.3853 25.8159 13.1908 26.205C13.0494 26.4879 12.8549 26.7177 12.625 26.8946C12.3951 27.0714 12.1299 27.1952 11.8293 27.2482L13.8628 28.3268L13.4914 29.0341L8.08069 26.1696L8.45201 25.48L9.07089 25.8159C8.92943 25.533 8.87639 25.2501 8.89407 24.9495C8.91175 24.6489 9.00016 24.3483 9.1593 24.0654C9.3538 23.6941 9.61904 23.3935 9.955 23.1813ZM12.6957 25.1617C12.6957 24.8965 12.6073 24.6489 12.4659 24.4367C12.3244 24.2069 12.1122 24.03 11.8293 23.8709C11.5641 23.7295 11.2812 23.6587 11.0159 23.6587C10.7507 23.6587 10.5031 23.7295 10.2733 23.8709C10.0611 24.0124 9.88427 24.2069 9.74281 24.4544C9.61904 24.702 9.54831 24.9495 9.56599 25.2148C9.58367 25.48 9.6544 25.7275 9.79586 25.9574C9.93731 26.1873 10.1495 26.3641 10.4324 26.5055C10.6976 26.647 10.9806 26.7177 11.2458 26.7177C11.511 26.7177 11.7586 26.647 11.9884 26.5055C12.2006 26.3641 12.3774 26.1696 12.5189 25.922C12.6427 25.6745 12.7134 25.4269 12.6957 25.1617Z" fill="#961914"/>
<path d="M15.3126 22.2265C14.9413 22.3856 14.5523 22.421 14.1633 22.3679C13.7743 22.3149 13.4029 22.138 13.067 21.8728C12.731 21.6076 12.4835 21.2893 12.342 20.918C12.2006 20.5466 12.1652 20.1576 12.2182 19.7686C12.289 19.3796 12.4658 19.0083 12.731 18.6547C13.0139 18.301 13.3322 18.0535 13.7035 17.912C14.0749 17.7529 14.4462 17.7175 14.8529 17.7706C15.2596 17.8236 15.6132 18.0004 15.9492 18.2657C16.2851 18.5309 16.5327 18.8492 16.6741 19.2205C16.8156 19.5918 16.851 19.9808 16.7979 20.3698C16.7449 20.7588 16.568 21.1302 16.2851 21.4838C16.0022 21.8198 15.6839 22.0673 15.3126 22.2265ZM16.0553 20.3168C16.0906 20.0515 16.0553 19.804 15.9492 19.5564C15.8431 19.3089 15.6663 19.079 15.4364 18.9022C15.2065 18.7077 14.9413 18.5839 14.6761 18.5486C14.4108 18.4778 14.1456 18.5132 13.9157 18.6016C13.6682 18.7077 13.4737 18.8668 13.2792 19.079C13.1023 19.3089 12.9963 19.5388 12.9609 19.804C12.9255 20.0515 12.9609 20.3168 13.0493 20.5643C13.1554 20.8119 13.3322 21.0418 13.5621 21.2363C13.8096 21.4308 14.0572 21.5369 14.3224 21.5899C14.5876 21.6429 14.8529 21.6076 15.0827 21.5192C15.3303 21.4308 15.5425 21.2716 15.7193 21.0417C15.8961 20.8119 16.0199 20.5643 16.0553 20.3168Z" fill="#961914"/>
<path d="M18.6546 12.7311L21.5898 16.0731L20.9887 16.6035L18.5132 13.7921L17.0809 15.0475L17.6821 15.8255C18.0534 16.3029 18.354 16.7096 18.5485 17.0633C18.743 17.4169 18.8668 17.7352 18.9022 18.0358C18.9198 18.3364 18.8138 18.5839 18.5839 18.7961C18.4778 18.8845 18.3363 18.9906 18.1595 19.0613L17.7528 18.5132C17.8235 18.4778 17.8766 18.4425 17.9296 18.3894C18.0888 18.248 18.1595 18.0535 18.1065 17.8413C18.0534 17.6291 17.965 17.3992 17.8059 17.1694C17.6467 16.9749 17.4169 16.6566 17.1163 16.2676L16.0907 14.9768L18.6546 12.7311Z" fill="#961914"/>
<path d="M20.8295 11.1221L21.5191 10.7154L23.1812 13.4915L23.8531 9.30083L24.472 8.9295L26.753 12.7488L26.0634 13.1555L24.4013 10.3794L23.7293 14.5524L23.0928 14.9238L20.8295 11.1221Z" fill="#961914"/>
<path d="M29.4584 9.56605L28.5919 9.90201L29.2639 11.6525L28.5035 11.9355L26.9298 7.78015L27.6901 7.49724L28.3621 9.24777L29.2462 8.91181L29.9358 6.6485L30.7492 6.3479L29.9358 8.94718L32.4466 10.4678L31.5625 10.8038L29.4584 9.56605Z" fill="#961914"/>
<path d="M59.5358 31.6688L58.4395 31.2621C56.7243 30.6255 54.8147 30.8377 53.294 31.8456L43.5158 30.1127C42.8262 29.989 42.1896 30.3426 41.9067 30.9615C41.6238 31.598 41.8006 32.3053 42.3488 32.7297C43.7633 33.8437 45.4255 34.5686 47.176 34.8516L43.7633 36.0893C43.1091 36.3192 42.7201 36.9557 42.7908 37.6453C42.8615 38.3349 43.3743 38.8654 44.0462 38.9538C46.6455 39.3251 49.3155 38.7063 51.5081 37.2563C51.6319 37.5923 51.8087 37.9106 52.0209 38.2289C52.0386 38.2465 52.0563 38.2642 52.0739 38.2819L47.8656 41.2348C46.9461 41.8714 46.2035 42.7024 45.6553 43.6749C45.5139 43.9225 45.6023 44.2408 45.8498 44.3822C46.0267 44.4883 46.2565 44.4706 46.4157 44.3469C46.4864 44.3115 46.5394 44.2408 46.5748 44.17C47.0522 43.339 47.6888 42.6317 48.4668 42.0836L52.7989 39.0599C54.3196 40.3684 56.6006 40.5275 58.3334 39.3251L60.2608 37.9636C61.0565 39.4312 61.4101 41.0757 61.2863 42.7378L60.9858 42.2957C60.8266 42.0659 60.4907 41.9951 60.2608 42.172C60.0309 42.3311 59.9602 42.6671 60.137 42.8969L62.1351 45.7438C62.2942 45.9736 62.6302 46.0444 62.8601 45.8675C63.5673 45.3724 64.5045 45.4255 65.1411 45.9383L62.6302 47.6888L58.7932 44.3822C58.581 44.1877 58.245 44.2231 58.0505 44.4353C57.856 44.6475 57.8914 44.9834 58.1036 45.1779L59.9779 46.8047C59.695 47.2644 59.359 47.7065 59.0053 48.0955C58.5456 48.0601 58.0859 48.1308 57.6615 48.3077C57.5201 48.0071 57.3255 47.7242 57.1134 47.4589C55.7872 45.9029 53.4885 45.5669 51.8618 46.6986C50.96 47.3352 50.3411 48.2546 50.1289 49.3156C49.9167 50.3942 50.1289 51.4728 50.7655 52.3746C51.1545 52.9404 51.6673 53.3648 52.2331 53.6477C50.1996 53.683 48.1839 52.7282 46.9284 50.9423C46.398 50.182 46.0443 49.3156 45.8675 48.3961C45.8145 48.1132 45.5492 47.9187 45.2663 47.9717C44.9834 48.0248 44.7889 48.29 44.8419 48.5729C45.0365 49.6338 45.4431 50.6417 46.062 51.5258C46.3803 51.9856 46.7516 52.4099 47.1583 52.7636C46.2742 53.7538 46.1327 55.2568 46.9284 56.3884C47.8479 57.7146 49.6692 58.0328 50.9953 57.1134C51.791 56.5475 52.2508 55.6281 52.2331 54.6732C53.6653 54.6556 55.1153 54.2135 56.3707 53.3471L61.0565 50.0759C61.2863 49.9167 61.3571 49.5808 61.1803 49.3509C60.8973 48.9442 60.526 48.6259 60.1193 48.4138C60.3669 48.1132 60.5791 47.8126 60.7912 47.4943L62.2589 48.7497C62.4357 48.9089 62.7009 48.9265 62.8954 48.7851L66.2197 46.451C66.4495 46.2919 66.5203 45.9559 66.3434 45.7261C65.5124 44.5414 63.9564 44.1524 62.7009 44.7359L62.1881 43.9932C62.6302 41.6592 62.2412 39.2721 61.0565 37.221C62.0467 36.0186 62.1528 34.2504 61.2156 32.9242C60.8089 32.3584 60.2254 31.9163 59.5358 31.6688ZM50.3765 56.3C49.5277 56.8835 48.3607 56.689 47.7772 55.8403C47.2467 55.0976 47.3528 54.0897 47.9717 53.4532C48.9442 54.1074 50.0405 54.5141 51.1722 54.6556C51.2075 55.2921 50.9069 55.9287 50.3765 56.3ZM55.7695 52.5337C54.408 53.4885 52.5514 53.1526 51.5965 51.8087C50.6417 50.4472 51.013 48.5906 52.4453 47.6004C53.63 46.7693 55.3098 47.0346 56.3 48.1839C56.5652 48.5022 56.7597 48.8558 56.8835 49.2448C56.9365 49.404 57.0603 49.5277 57.2195 49.5808C57.3786 49.6338 57.5554 49.6161 57.6969 49.5101C58.4042 49.015 59.3413 49.068 59.9779 49.5808L55.7695 52.5337ZM43.003 31.9163C42.7555 31.7218 42.8439 31.4743 42.8792 31.4035C42.9146 31.3328 43.0384 31.1029 43.3566 31.156L52.3038 32.7297C52.1977 32.8535 52.1093 32.9773 52.0209 33.1187L49.7753 33.9321C47.2998 34.1266 44.9127 33.4016 43.003 31.9163ZM44.2054 37.9283C43.9048 37.8929 43.8517 37.6277 43.8341 37.5569C43.8341 37.4862 43.8164 37.2033 44.117 37.0972L51.3667 34.4626C51.2075 35.0107 51.1722 35.6119 51.2429 36.1777C49.2271 37.6277 46.6809 38.2642 44.2054 37.9283ZM59.7303 37.0618L57.7146 38.4764C56.1408 39.5727 53.9836 39.1837 52.8873 37.6277C51.791 36.0539 52.18 33.8967 53.7361 32.8004C54.9915 31.9163 56.6183 31.7041 58.0682 32.2523L59.1645 32.659C59.6419 32.8358 60.0663 33.1541 60.3492 33.5784C61.1449 34.7101 60.8797 36.2661 59.7303 37.0618Z" fill="#961914"/>
<path d="M55.9817 34.2504C55.8756 34.3211 55.7871 34.4449 55.7695 34.5864C55.7518 34.7278 55.7695 34.8693 55.8579 34.9754C55.9463 35.0815 56.0524 35.1699 56.1938 35.1876C56.3353 35.2052 56.4768 35.1876 56.5828 35.0991C56.6889 35.0284 56.7773 34.9046 56.795 34.7632C56.8127 34.6217 56.795 34.4803 56.7066 34.3742C56.6359 34.2681 56.5121 34.1797 56.3707 34.162C56.2469 34.1266 56.1054 34.162 55.9817 34.2504Z" fill="#961914"/>
<path d="M45.6199 46.5749C45.5138 46.6456 45.3723 46.6809 45.2309 46.6633C45.0894 46.6456 44.9656 46.5572 44.8949 46.4511C44.8242 46.345 44.7888 46.2035 44.8065 46.0621C44.8242 45.9206 44.9126 45.7968 45.0187 45.7261C45.1248 45.6554 45.2662 45.62 45.4077 45.6377C45.5492 45.6554 45.6729 45.7438 45.7437 45.8499C45.8144 45.956 45.8498 46.0974 45.8321 46.2389C45.8144 46.3803 45.7437 46.5041 45.6199 46.5749Z" fill="#961914"/>
<path d="M33.3662 28.6274C33.6494 28.6274 33.879 28.3979 33.879 28.1146C33.879 27.8314 33.6494 27.6019 33.3662 27.6019C33.083 27.6019 32.8534 27.8314 32.8534 28.1146C32.8534 28.3979 33.083 28.6274 33.3662 28.6274Z" fill="#961914"/>
<path d="M17.6291 48.5022L19.9455 51.0484C21.5722 52.852 23.6941 54.1428 26.0458 54.7616L27.6372 56.5299C27.7256 56.636 27.8494 56.689 27.9909 56.689L29.4231 56.7597C29.5646 56.7597 29.6883 56.7244 29.7944 56.636L30.5548 55.964C30.767 55.7695 30.7846 55.4513 30.5901 55.2567L27.6726 52.0209L29.1048 52.0916L30.6609 53.8245C30.7493 53.9306 30.873 53.9836 31.0145 53.9836L32.4468 54.0544C32.5882 54.0544 32.712 54.019 32.8181 53.9306L33.5784 53.2587C33.7906 53.0642 33.8083 52.7459 33.6138 52.5514L30.2011 48.7674C30.5725 48.343 30.8377 47.8479 30.9615 47.2998C31.0852 46.8224 31.3505 46.3803 31.7041 46.0444L33.6845 44.2585C34.3034 44.5944 34.9753 44.842 35.6472 45.0188L36.5844 45.2487L38.1758 47.0169C38.2642 47.123 38.388 47.176 38.5294 47.176L39.9617 47.2467C40.1031 47.2467 40.2269 47.2114 40.333 47.123L41.0933 46.451C41.3055 46.2565 41.3232 45.9383 41.1287 45.7438L37.8398 42.1012L39.608 42.5433L41.1994 44.3115C41.2878 44.4176 41.4116 44.4706 41.5531 44.4706L42.9853 44.5414C43.1268 44.5414 43.2506 44.506 43.3566 44.4176L44.117 43.7457C44.3292 43.5512 44.3468 43.2329 44.1523 43.0384L38.7062 37.0265L38.6886 37.0441C38.6886 35.5412 38.1227 34.1089 37.1148 32.9949L35.7533 31.4919L37.0972 30.2719C37.2917 30.0951 37.4508 29.8652 37.5569 29.6176C37.9105 28.7158 37.4685 27.708 36.5667 27.372L36.0186 27.1598L36.7258 26.5233C36.8319 26.4348 36.885 26.3111 36.885 26.1696L36.9557 24.7374C36.9734 24.4544 36.7612 24.2246 36.4783 24.2069L35.046 24.1362C34.9046 24.1362 34.7808 24.1715 34.6747 24.2599L33.9144 24.9319C32.9772 23.8886 31.3681 23.8179 30.3426 24.755L28.9457 26.0105C27.814 27.036 27.036 28.3799 26.7001 29.8652C26.4171 31.156 25.7452 32.3053 24.7727 33.1894L18.1242 39.2014C15.4012 41.6415 15.189 45.7968 17.6291 48.5022ZM35.8417 25.8867L35.2405 26.4172L34.5686 25.6568L35.1698 25.1264L35.8771 25.1617L35.8417 25.8867ZM34.8515 30.8731L33.49 30.5371L32.5705 29.5292C32.376 29.317 32.0578 29.2994 31.8632 29.4939L30.8907 30.378L30.1834 30.3426L30.2188 29.6353L31.1913 28.7512C31.2444 28.6982 31.2974 28.6274 31.3151 28.5567L31.6864 27.6195L33.4723 25.9928L35.1698 27.8671L34.7985 28.2031L35.4704 28.9634L36.1777 28.3268C36.2661 28.3622 36.3545 28.4329 36.4252 28.5037C36.6905 28.8043 36.6728 29.264 36.3722 29.5292L34.8515 30.8731ZM41.7653 43.4628L40.5452 42.1189L41.3055 41.447L43.003 43.3213L42.7908 43.5158L41.7653 43.4628ZM37.2563 40.9165C37.8752 40.1739 38.2996 39.2898 38.4941 38.3349L40.6159 40.6867L39.6964 41.5177L37.2563 40.9165ZM38.7593 46.1858L37.5392 44.842L38.2995 44.17L39.997 46.0444L39.7848 46.2389L38.7593 46.1858ZM31.2444 52.9934L30.0243 51.6496L30.7846 50.9777L32.4821 52.852L32.2523 53.0465L31.2444 52.9934ZM27.6903 51.013L29.4231 49.457L30.095 50.2173L29.1225 51.1014L27.6903 51.013ZM28.2384 55.6988L27.0183 54.355L27.7787 53.683L29.4762 55.5573L29.264 55.7519L28.2384 55.6988ZM18.3718 47.8302C16.303 45.5492 16.4798 42.0305 18.7608 39.9617L25.4093 33.9498C26.5409 32.9242 27.3189 31.5804 27.6549 30.095C27.9378 28.8043 28.6097 27.6549 29.5823 26.7708L30.9791 25.5154C31.4566 25.091 32.1638 25.0026 32.7297 25.3032L30.9084 26.9476C30.8554 27.0007 30.8023 27.0714 30.7846 27.1421L30.4133 28.0793L29.3701 29.0164C29.264 29.1048 29.2109 29.2286 29.2109 29.3701L29.1402 30.8023C29.1225 31.0852 29.3347 31.3151 29.6176 31.3328L31.0499 31.4035C31.1913 31.4035 31.3151 31.3682 31.4212 31.2798L32.1815 30.6078L32.8534 31.3682C32.9242 31.4389 33.0126 31.4919 33.101 31.5273L34.7278 31.934L36.3192 33.7022C38.0697 35.6296 38.0697 38.5648 36.3192 40.5098L34.9753 39.0245L34.215 39.6965L37.6099 43.4628L36.6905 44.2938L35.8594 44.0816C34.3564 43.7103 32.9949 42.8792 31.9517 41.7299L31.1913 42.4018C31.6511 42.9146 32.1638 43.3567 32.7297 43.7457L30.9791 45.3371C30.4664 45.7968 30.095 46.4157 29.9182 47.0876C29.7944 47.565 29.5292 48.0071 29.1756 48.343L26.4702 50.7832L24.4367 48.5199L23.6764 49.1918L27.0714 52.9581L26.1696 53.7538C24.0654 53.1703 22.1557 52.0032 20.6881 50.3588L18.3718 47.8302Z" fill="#961914"/>
</g>
<defs>
<clipPath id="clip0_202_2210">
<rect width="83" height="83" fill="white"/>
</clipPath>
</defs>
</svg>
