<svg width="149" height="427" viewBox="0 0 149 427" fill="none" xmlns="http://www.w3.org/2000/svg">
<g clip-path="url(#clip0_9120_337)">
<path d="M53.3139 90.3083C58.6913 87.532 63.7125 84.1821 68.3814 80.37C69.0631 79.7891 68.049 78.8474 67.3672 79.4283C62.8087 83.1809 57.8406 86.4453 52.5734 89.1622C51.7729 89.5519 52.5143 90.7259 53.3139 90.3083Z" fill="white"/>
<path d="M40.15 81.1062C41.1095 74.6593 42.6323 68.2768 44.6664 62.0722C44.9182 61.2269 43.5606 60.9105 43.2807 61.7567C41.2467 67.9613 39.7518 74.3428 38.7643 80.7908C38.6544 81.687 40.0121 82.0034 40.15 81.1062Z" fill="white"/>
<path d="M58.0326 106.128C64.3245 107.142 70.5884 108.156 76.8803 109.169C77.7549 109.307 78.1018 107.956 77.1992 107.82C70.9073 106.806 64.6434 105.792 58.3515 104.779C57.476 104.613 57.1291 105.964 58.0326 106.128Z" fill="white"/>
</g>
<g clip-path="url(#clip1_9120_337)">
<path d="M-81.4522 422.438C-54.0834 417.951 -28.2061 406.168 -6.25079 389.356C16.1306 372.231 34.78 349.629 46.3684 323.859C52.3827 310.471 56.4931 295.775 55.4352 280.998C54.3703 266.111 48.126 252.013 40.2814 239.473C32.3025 226.682 22.1812 214.752 9.90812 205.882C-1.2706 197.784 -15.016 192.192 -29.0204 193.655C-50.7039 195.933 -71.6169 219.607 -61.139 241.467C-58.2288 247.519 -53.4457 252.45 -48.1324 256.462C-42.377 260.799 -35.7725 264.332 -28.8154 266.285C-15.4495 270.049 -2.05271 266.486 9.11422 258.662C32.4658 242.342 45.3165 213.173 48.4213 185.548C51.6626 156.778 44.1878 127.837 29.5273 103.038C15.524 79.2826 -4.6746 59.226 -28.6628 45.5513C-51.8373 32.3464 -78.7094 25.1218 -105.436 27.0408C-111.899 27.5065 -118.369 28.5284 -124.664 30.0358C-125.601 30.2644 -125.228 31.7393 -124.276 31.4844C-98.8319 25.3619 -72.0695 28.2908 -47.8538 37.9343C-23.4392 47.6577 -1.87533 63.9553 14.6533 84.3066C32.0683 105.729 44.2571 131.9 47.0313 159.526C49.8932 187.727 42.8366 217.408 25.6562 240.194C17.7218 250.724 7.20188 260.216 -5.52458 264.376C-19.5383 268.948 -33.7553 264.657 -45.5276 256.496C-56.1007 249.168 -64.7349 237.572 -61.9866 224.083C-59.7565 213.128 -51.373 203.941 -41.5864 198.993C-15.598 185.804 12.3009 206.284 28.3863 225.645C37.9868 237.204 46.2109 250.662 50.7399 265.065C55.1648 279.163 54.7426 293.715 50.6535 307.829C46.7472 321.384 40.1039 334.164 32.33 345.871C24.8095 357.199 15.9584 367.62 6.02204 376.889C-13.5639 395.173 -37.3454 409.146 -63.1031 416.662C-69.2942 418.474 -75.57 419.887 -81.9458 420.929C-82.8 421.135 -82.4114 422.584 -81.4522 422.438Z" fill="white"/>
</g>
<defs>
<clipPath id="clip0_9120_337">
<rect x="38.1069" y="61.4585" width="38" height="49" rx="2" transform="rotate(-1.94609 38.1069 61.4585)" fill="white"/>
</clipPath>
<clipPath id="clip1_9120_337">
<rect x="-27.6558" y="453.707" width="296" height="353" rx="2" transform="rotate(-150 -27.6558 453.707)" fill="white"/>
</clipPath>
</defs>
</svg>
