<svg width="40" height="51" viewBox="0 0 40 51" fill="none" xmlns="http://www.w3.org/2000/svg">
<g clip-path="url(#clip0_6231_3216)">
<path d="M15.3134 30.3083C20.6908 27.532 25.7121 24.1821 30.3809 20.37C31.0626 19.7891 30.0485 18.8474 29.3668 19.4283C24.8082 23.1809 19.8401 26.4453 14.5729 29.1622C13.7724 29.5519 14.5138 30.7259 15.3134 30.3083Z" fill="white"/>
<path d="M2.14949 21.1062C3.10897 14.6593 4.63185 8.27678 6.66586 2.07216C6.91775 1.22694 5.56009 0.910521 5.28018 1.75669C3.24617 7.96131 1.75132 14.3428 0.76381 20.7908C0.653958 21.687 2.01161 22.0034 2.14949 21.1062Z" fill="white"/>
<path d="M20.0321 46.1282C26.324 47.1415 32.5879 48.1558 38.8798 49.1691C39.7544 49.3067 40.1013 47.9563 39.1988 47.8196C32.9068 46.8063 26.643 45.792 20.351 44.7787C19.4755 44.6133 19.1286 45.9637 20.0321 46.1282Z" fill="white"/>
</g>
<defs>
<clipPath id="clip0_6231_3216">
<rect x="0.106445" y="1.4585" width="38" height="49" rx="2" transform="rotate(-1.94609 0.106445 1.4585)" fill="white"/>
</clipPath>
</defs>
</svg>
