<svg width="108" height="93" viewBox="0 0 108 93" fill="none" xmlns="http://www.w3.org/2000/svg">
<path d="M62.9098 87.2865C59.1637 88.7134 55.4325 90.1309 51.6864 91.5577C51.1668 91.7578 51.4025 92.6025 51.9371 92.3931C55.6832 90.9663 59.4143 89.5488 63.1604 88.122C63.6894 87.9368 63.4537 87.092 62.9098 87.2865Z" fill="white"/>
<path d="M39.1002 -128.886C25.6159 -117.836 15.236 -103.281 8.57003 -87.2214C1.77073 -70.8567 -1.27658 -52.6822 0.513716 -35.003C1.44695 -25.8204 3.82766 -16.5236 9.04617 -8.80799C14.3028 -1.03523 22.1305 4.68004 30.3392 9.04269C38.7003 13.5006 47.9565 16.8155 57.4222 17.7871C66.0499 18.6824 75.287 17.406 82.4482 12.2051C93.5328 4.14662 97.4752 -15.3234 84.9051 -23.9344C81.4197 -26.3158 77.2678 -27.4969 73.1158 -28.0113C68.621 -28.5638 63.9167 -28.4114 59.5172 -27.2874C51.0609 -25.1346 44.8901 -18.9812 41.2714 -11.2084C33.6913 5.02296 35.8625 24.9502 42.8522 40.972C50.1277 57.6606 63.2882 71.0724 79.058 79.9692C94.1422 88.504 111.436 93.0762 128.786 92.9809C145.546 92.8857 162.44 88.3706 176.381 78.9214C179.752 76.6352 182.952 74.0443 185.904 71.2439C186.342 70.8247 185.676 70.1389 185.238 70.5771C173.315 81.9124 157.831 88.7326 141.623 91.0949C125.282 93.4762 108.426 91.3806 93.0376 85.4939C76.8297 79.3024 61.9741 68.8815 51.7847 54.7077C41.3667 40.248 35.8815 21.8639 38.0718 4.05135C39.0812 -4.17863 41.8238 -12.6563 47.4422 -18.924C53.6321 -25.8204 62.7169 -27.9541 71.6874 -27.2111C79.7437 -26.5444 88.0857 -22.9437 90.8283 -14.7328C93.0566 -8.065 91.3806 -0.425604 87.6096 5.34682C77.6106 20.7018 55.9937 18.3205 41.1572 12.8338C32.3009 9.55706 23.5971 4.8134 16.6073 -1.60675C9.76991 -7.89354 5.4275 -15.9521 3.2182 -24.925C1.08509 -33.536 0.685127 -42.5852 1.23745 -51.4058C1.77073 -59.9406 3.31343 -68.3992 5.80841 -76.572C10.7222 -92.6891 19.2737 -107.777 30.9296 -119.97C33.7294 -122.904 36.7005 -125.647 39.843 -128.219C40.243 -128.6 39.5764 -129.267 39.1002 -128.886Z" fill="white"/>
</svg>
