<svg width="61" height="60" viewBox="0 0 61 60" fill="none" xmlns="http://www.w3.org/2000/svg">
<g clip-path="url(#clip0_6231_3127)">
<path d="M30.9374 59.9868C47.4989 59.9868 60.9246 46.561 60.9246 29.9995C60.9246 13.4381 47.4989 0.0123291 30.9374 0.0123291C14.3759 0.0123291 0.950195 13.4381 0.950195 29.9995C0.950195 46.561 14.3759 59.9868 30.9374 59.9868Z" fill="#C3D6EA"/>
<path d="M30.9381 50.4772C42.2474 50.4772 51.4154 41.3093 51.4154 30C51.4154 18.6908 42.2474 9.5228 30.9381 9.5228C19.6289 9.5228 10.4609 18.6908 10.4609 30C10.4609 41.3093 19.6289 50.4772 30.9381 50.4772Z" stroke="#961914" stroke-width="0.5" stroke-miterlimit="10"/>
<path d="M33.7244 2.51811L36.8944 3.01662L36.8177 3.52791L34.2485 3.11888L34.044 4.32041L35.3478 4.52493C35.8463 4.60162 36.2042 4.76779 36.4343 5.02344C36.6643 5.2663 36.741 5.58586 36.6771 5.98211C36.6132 6.39114 36.4215 6.68513 36.1019 6.86409C35.7824 7.04304 35.3606 7.08138 34.8365 7.00469L33.0342 6.72348L33.7244 2.51811ZM34.9132 6.53175C35.2583 6.58288 35.5267 6.55731 35.7312 6.45505C35.9358 6.3528 36.0508 6.17384 36.0891 5.9182C36.1658 5.40691 35.8591 5.10013 35.156 4.98509L33.9801 4.79336L33.7372 6.32723L34.9132 6.53175Z" fill="#961914"/>
<path d="M40.5757 5.5603C40.7291 5.84151 40.7291 6.18663 40.5885 6.59566L39.9493 8.42353L39.4253 8.24458L39.5659 7.84832C39.4253 7.96337 39.2591 8.01449 39.0546 8.04006C38.8628 8.05284 38.6455 8.02728 38.4155 7.9378C38.0831 7.82276 37.8275 7.64381 37.6869 7.40095C37.5335 7.17086 37.5079 6.91522 37.6102 6.64679C37.6997 6.37836 37.8786 6.19941 38.1343 6.10994C38.3899 6.02046 38.7222 6.04602 39.1441 6.18663L40.0132 6.4934L40.0516 6.39115C40.1283 6.14828 40.1283 5.94377 40.0388 5.7776C39.9493 5.59864 39.7704 5.47082 39.502 5.38135C39.323 5.31743 39.1313 5.27909 38.9395 5.27909C38.7478 5.27909 38.5689 5.30465 38.4155 5.36856L38.326 4.88284C38.5305 4.80614 38.7478 4.78058 38.9907 4.79336C39.2335 4.80614 39.4764 4.84449 39.7193 4.93397C40.1411 5.06179 40.4223 5.27909 40.5757 5.5603ZM39.2463 7.59268C39.438 7.55433 39.5914 7.45207 39.7193 7.31147L39.8726 6.88965L39.029 6.59566C38.5689 6.42949 38.2749 6.50619 38.1726 6.82574C38.1215 6.97913 38.1343 7.11974 38.2237 7.24756C38.3132 7.37538 38.4538 7.47764 38.6711 7.55433C38.8628 7.61824 39.0674 7.63103 39.2463 7.59268Z" fill="#961914"/>
<path d="M44.8193 7.52875C44.9727 7.77161 45.0366 8.02726 45.0366 8.32125C45.0366 8.60246 44.96 8.88367 44.7938 9.16488C44.6276 9.44609 44.4359 9.66339 44.193 9.81678C43.9502 9.97016 43.6817 10.0341 43.4005 10.0341C43.1193 10.0341 42.8381 9.95738 42.5697 9.804C42.3651 9.68895 42.2118 9.54835 42.0839 9.38218C41.9561 9.21601 41.8794 9.01149 41.8411 8.80698L41.023 10.2514L40.5117 9.97017L42.6591 6.13548L43.1449 6.40391L42.902 6.85129C43.1065 6.76181 43.311 6.72347 43.5283 6.73625C43.7456 6.74903 43.9629 6.82573 44.1674 6.94077C44.4614 7.09415 44.666 7.29867 44.8193 7.52875ZM43.3494 9.48444C43.5411 9.48444 43.7201 9.43331 43.8862 9.33105C44.0524 9.22879 44.193 9.07541 44.2953 8.88367C44.3975 8.69194 44.4614 8.5002 44.4614 8.29569C44.4614 8.09117 44.4103 7.925 44.3208 7.75883C44.2186 7.59266 44.078 7.46484 43.899 7.36258C43.7201 7.26032 43.5411 7.20919 43.3494 7.22198C43.1577 7.23476 42.9787 7.2731 42.8125 7.37536C42.6464 7.47762 42.5058 7.61823 42.4035 7.82274C42.3012 8.01448 42.2373 8.20621 42.2373 8.41073C42.2373 8.60246 42.2885 8.78141 42.3779 8.94758C42.4802 9.11375 42.608 9.24158 42.787 9.34383C42.9659 9.43331 43.1577 9.48444 43.3494 9.48444Z" fill="#961914"/>
<path d="M48.4107 10.3409C48.4491 10.6604 48.334 10.9928 48.0656 11.3251L46.8257 12.8206L46.4039 12.4755L46.6723 12.1432C46.5062 12.1943 46.3272 12.1943 46.1355 12.1432C45.9437 12.092 45.752 11.9898 45.5603 11.8236C45.2791 11.5935 45.1129 11.3379 45.0618 11.0695C45.0106 10.801 45.0618 10.5582 45.2407 10.3281C45.4197 10.1108 45.6497 9.99574 45.9182 9.99574C46.1866 9.99574 46.4934 10.1363 46.8385 10.4176L47.5543 11.0055L47.631 10.9161C47.7844 10.7243 47.8611 10.5326 47.8227 10.3281C47.7844 10.1236 47.6693 9.94462 47.452 9.76566C47.2987 9.65062 47.1453 9.54837 46.9663 9.48445C46.7874 9.42054 46.6084 9.3822 46.455 9.3822L46.5445 8.89647C46.7618 8.89647 46.9791 8.9476 47.1964 9.03707C47.4137 9.12655 47.631 9.25437 47.8355 9.42054C48.1678 9.72732 48.3596 10.0213 48.4107 10.3409ZM46.455 11.798C46.6468 11.8236 46.8257 11.7853 46.9919 11.6958L47.2731 11.3507L46.5828 10.7755C46.1994 10.4559 45.9054 10.4303 45.7009 10.686C45.5986 10.8138 45.5603 10.9544 45.5986 11.1078C45.637 11.2612 45.7392 11.4018 45.9182 11.5424C46.0971 11.683 46.2761 11.7725 46.455 11.798Z" fill="#961914"/>
<path d="M50.2139 11.6447L50.5973 12.092L49.562 12.974L50.7507 14.3673L51.7861 13.4853L52.1696 13.9327L49.7281 16.0162L49.3447 15.5688L50.3673 14.6996L49.1785 13.3064L48.1559 14.1755L47.7725 13.7282L50.2139 11.6447Z" fill="#961914"/>
<path d="M53.307 15.556L53.601 16.0673L51.5687 17.2305L54.5853 17.7929L54.8409 18.2531L52.0416 19.8381L51.7604 19.3268L53.7928 18.1636L50.7889 17.614L50.5205 17.1538L53.307 15.556Z" fill="#961914"/>
<path d="M55.6329 20.0043L55.8246 20.5539L54.5336 21.0013L55.1344 22.7397L56.4254 22.2923L56.6171 22.8419L53.575 23.8901L53.3832 23.3404L54.6615 22.9058L54.0735 21.1675L52.7953 21.6021L52.6035 21.0524L55.6329 20.0043Z" fill="#961914"/>
<path d="M57.0907 26.9578C56.9117 27.2263 56.605 27.3924 56.1832 27.4563L54.2658 27.7503L54.1763 27.2007L54.5981 27.1368C54.432 27.0601 54.3042 26.9451 54.1891 26.7789C54.0869 26.6127 54.0102 26.4082 53.9718 26.1653C53.9207 25.8074 53.959 25.5134 54.0996 25.2706C54.2402 25.0277 54.4448 24.8871 54.726 24.8488C55.0072 24.8104 55.25 24.8743 55.4546 25.0533C55.6591 25.2322 55.7869 25.539 55.8636 25.9864L56.0042 26.8939L56.1192 26.8811C56.3621 26.8428 56.5411 26.7405 56.6561 26.5744C56.7584 26.4082 56.7967 26.1909 56.7583 25.9097C56.7328 25.718 56.6689 25.539 56.5794 25.3728C56.4899 25.2067 56.3877 25.0661 56.2598 24.951L56.6561 24.6442C56.8095 24.7848 56.9501 24.9638 57.0523 25.1811C57.1546 25.3984 57.2313 25.6285 57.2696 25.8841C57.3336 26.3315 57.2696 26.6894 57.0907 26.9578ZM54.6748 26.7405C54.8027 26.8811 54.9561 26.9834 55.1478 27.0217L55.5952 26.9578L55.4546 26.0759C55.3779 25.5901 55.1734 25.3728 54.8538 25.424C54.7004 25.4495 54.5726 25.5262 54.5087 25.6668C54.432 25.8074 54.4192 25.9864 54.4448 26.2037C54.4703 26.421 54.5598 26.5999 54.6748 26.7405Z" fill="#961914"/>
<path d="M59.3399 32.6204L59.3016 33.1444L53.7285 30.7797L53.7669 30.2556L59.3399 32.6204Z" fill="#961914"/>
<path d="M55.1089 37.4009L55.3645 36.5573L53.575 36.0205L53.7412 35.4453L57.8187 36.6468L57.6525 37.222L55.8886 36.6979L55.6329 37.5543L57.0262 39.3566L56.8473 39.983L55.3006 37.9506L52.7441 38.8581L52.9359 38.1934L55.1089 37.4009Z" fill="#961914"/>
<path d="M53.818 43.3191C53.5752 43.4725 53.3195 43.5492 53.0383 43.562C52.7571 43.5748 52.4759 43.4981 52.1819 43.3447C51.9007 43.1913 51.6706 42.9996 51.5172 42.7567C51.3639 42.5138 51.2872 42.2582 51.2744 41.977C51.2744 41.6958 51.3383 41.4146 51.4789 41.1461C51.5812 40.9416 51.7218 40.7755 51.8879 40.6476C52.0541 40.5198 52.2458 40.4431 52.4631 40.392L50.9932 39.6123L51.2616 39.101L55.1474 41.1589L54.8918 41.6574L54.4444 41.4146C54.5466 41.6063 54.585 41.8236 54.5722 42.0409C54.5594 42.2582 54.4955 42.4755 54.3805 42.68C54.2399 42.9484 54.0481 43.1657 53.818 43.3191ZM51.824 41.8875C51.8368 42.0792 51.8879 42.2582 51.9902 42.4244C52.0924 42.5905 52.2458 42.7184 52.4503 42.8206C52.6421 42.9229 52.8466 42.974 53.0383 42.974C53.2301 42.974 53.409 42.9229 53.5752 42.8206C53.7286 42.7184 53.8564 42.5778 53.9587 42.3988C54.0481 42.2199 54.0993 42.0409 54.0865 41.8492C54.0737 41.6574 54.0226 41.4785 53.9203 41.3251C53.8181 41.1589 53.6647 41.0311 53.4729 40.9288C53.2812 40.8266 53.0767 40.7755 52.8849 40.7755C52.6932 40.7755 52.5143 40.8266 52.3481 40.9288C52.1819 41.0311 52.0541 41.1717 51.9646 41.3507C51.8624 41.5168 51.824 41.7086 51.824 41.8875Z" fill="#961914"/>
<path d="M49.9575 43.9838C50.2259 43.8688 50.5071 43.8432 50.7883 43.8816C51.0696 43.9199 51.338 44.0477 51.5808 44.2395C51.8237 44.4312 52.0027 44.6613 52.1049 44.9297C52.2072 45.1981 52.2455 45.4793 52.1944 45.7606C52.1433 46.0418 52.0282 46.3102 51.8237 46.5658C51.632 46.8215 51.3891 47.0004 51.1335 47.1155C50.865 47.2305 50.5966 47.2561 50.3026 47.2177C50.0214 47.1794 49.753 47.0516 49.5101 46.8598C49.2673 46.6681 49.0883 46.438 48.986 46.1696C48.8838 45.9012 48.8454 45.62 48.8966 45.3387C48.9477 45.0575 49.0627 44.7891 49.2673 44.5335C49.459 44.2778 49.6891 44.0989 49.9575 43.9838ZM49.4206 45.3643C49.3951 45.556 49.4206 45.735 49.4973 45.9139C49.574 46.0929 49.7019 46.2463 49.868 46.3869C50.0342 46.5275 50.2259 46.617 50.4177 46.6425C50.6094 46.6681 50.7883 46.6553 50.9673 46.5914C51.1462 46.5147 51.2869 46.3997 51.4147 46.2463C51.5425 46.0801 51.6192 45.9139 51.6448 45.7222C51.6703 45.5305 51.6575 45.3515 51.5808 45.1726C51.5042 44.9936 51.3763 44.8275 51.2102 44.6996C51.0312 44.559 50.8523 44.4695 50.6605 44.444C50.4688 44.4184 50.2771 44.4312 50.1109 44.4951C49.9319 44.559 49.7785 44.6741 49.6507 44.8402C49.5357 45.0064 49.4462 45.1854 49.4206 45.3643Z" fill="#961914"/>
<path d="M47.5546 50.8479L45.4199 48.4448L45.8545 48.0614L47.644 50.0937L48.6794 49.1734L48.232 48.611C47.9636 48.2787 47.7463 47.9719 47.6057 47.729C47.4523 47.4734 47.3756 47.2433 47.35 47.026C47.3373 46.8087 47.414 46.6297 47.5801 46.4764C47.6568 46.4124 47.7591 46.3358 47.8869 46.2846L48.1809 46.6809C48.1298 46.7064 48.0914 46.732 48.0531 46.7576C47.9253 46.8598 47.8869 47.0004 47.9252 47.1538C47.9636 47.3072 48.0275 47.4734 48.1425 47.6395C48.2576 47.8057 48.4238 48.023 48.6411 48.3042L49.3824 49.2373L47.5546 50.8479Z" fill="#961914"/>
<path d="M45.995 52.0239L45.4964 52.3179L44.2949 50.3111L43.8092 53.3277L43.3618 53.5961L41.7129 50.8351L42.2114 50.5411L43.4129 52.548L43.8987 49.5313L44.3588 49.2501L45.995 52.0239Z" fill="#961914"/>
<path d="M39.7451 53.1487L40.3714 52.9058L39.8857 51.6404L40.4225 51.4359L41.5729 54.4397L41.0233 54.6442L40.5376 53.3788L39.8985 53.6217L39.4127 55.2578L38.8248 55.4751L39.4127 53.5961L37.5977 52.4968L38.2368 52.2539L39.7451 53.1487Z" fill="#961914"/>
<path d="M28.1768 57.5586L25.0068 57.0473L25.0963 56.536L27.6655 56.9451L27.8573 55.7435L26.5535 55.539C26.055 55.4623 25.6971 55.2961 25.467 55.0405C25.2369 54.7976 25.1602 54.4653 25.2241 54.0818C25.288 53.6728 25.4798 53.3788 25.7993 53.1998C26.1189 53.0209 26.5407 52.9825 27.052 53.0592L28.8543 53.3405L28.1768 57.5586ZM27.0009 53.545C26.6557 53.4938 26.3873 53.5194 26.1828 53.6217C25.9783 53.7239 25.8632 53.9029 25.8249 54.1585C25.7482 54.6698 26.055 54.9766 26.758 55.0916L27.934 55.2834L28.1768 53.7495L27.0009 53.545Z" fill="#961914"/>
<path d="M21.3384 54.5036C21.185 54.2224 21.185 53.8773 21.3256 53.4683L21.9647 51.6404L22.4888 51.8194L22.3482 52.2156C22.4888 52.1006 22.6549 52.0494 22.8595 52.0239C23.0512 52.0111 23.2685 52.0367 23.4986 52.1261C23.8437 52.2412 24.0866 52.4201 24.2272 52.663C24.3678 52.8931 24.3933 53.1487 24.3039 53.4171C24.2144 53.6856 24.0354 53.8645 23.7798 53.954C23.5241 54.0435 23.1918 54.0179 22.77 53.8773L21.9008 53.5705L21.8624 53.6856C21.7858 53.9157 21.7857 54.133 21.8752 54.2991C21.9647 54.4781 22.1437 54.6059 22.4121 54.6954C22.591 54.7593 22.7828 54.7848 22.9745 54.7976C23.1662 54.7976 23.3452 54.7721 23.4986 54.7082L23.588 55.2067C23.3835 55.2706 23.1662 55.3089 22.9234 55.2961C22.6805 55.2834 22.4376 55.245 22.1948 55.1555C21.773 55.0022 21.479 54.7848 21.3384 54.5036ZM22.6677 52.4713C22.4888 52.5096 22.3226 52.5991 22.1948 52.7525L22.0414 53.1743L22.885 53.4683C23.3452 53.6344 23.6392 53.5578 23.7414 53.251C23.7926 53.0976 23.7798 52.957 23.6903 52.8292C23.6008 52.7013 23.4602 52.5991 23.2429 52.5224C23.0512 52.4457 22.8467 52.4329 22.6677 52.4713Z" fill="#961914"/>
<path d="M17.0943 52.5224C16.9409 52.2795 16.877 52.0239 16.877 51.7299C16.877 51.4359 16.9536 51.1675 17.1198 50.8862C17.2732 50.605 17.4777 50.3877 17.7206 50.2343C17.9634 50.081 18.2319 50.017 18.5131 50.017C18.7943 50.017 19.0755 50.0937 19.3439 50.2471C19.5484 50.3622 19.7018 50.5028 19.8297 50.6689C19.9575 50.8351 20.0342 51.0396 20.0597 51.2441L20.8778 49.7997L21.3891 50.081L19.2289 53.9029L18.7432 53.6344L18.9988 53.1871C18.7943 53.2765 18.5898 53.3149 18.3725 53.2893C18.1552 53.2765 17.9379 53.1998 17.7334 53.0848C17.4522 52.957 17.2349 52.7652 17.0943 52.5224ZM18.577 50.5795C18.3853 50.5795 18.2063 50.6306 18.0401 50.7328C17.874 50.8351 17.7334 50.9885 17.6311 51.1802C17.5161 51.372 17.4649 51.5637 17.4649 51.7682C17.4649 51.96 17.5161 52.1389 17.6055 52.3051C17.7078 52.4712 17.8356 52.5991 18.0146 52.7013C18.1935 52.8036 18.3725 52.8547 18.5642 52.8419C18.7559 52.8291 18.9349 52.7908 19.1011 52.6885C19.2672 52.5863 19.4078 52.4457 19.5101 52.2412C19.6251 52.0494 19.6763 51.8577 19.6763 51.6532C19.6763 51.4614 19.6379 51.2825 19.5357 51.1163C19.4334 50.9502 19.3056 50.8223 19.1266 50.7201C18.9477 50.6178 18.7559 50.5667 18.577 50.5795Z" fill="#961914"/>
<path d="M13.516 49.7103C13.4776 49.3907 13.5927 49.0584 13.8611 48.726L15.101 47.2305L15.5228 47.5884L15.2544 47.9207C15.4205 47.8696 15.5995 47.8696 15.7912 47.9207C15.983 47.9719 16.1619 48.0741 16.3536 48.2403C16.6349 48.4704 16.801 48.726 16.8522 48.9945C16.9033 49.2629 16.8522 49.5185 16.6604 49.7358C16.4815 49.9531 16.2514 50.0682 15.983 50.0682C15.7145 50.0682 15.4078 49.9276 15.0626 49.6464L14.3468 49.0584L14.2701 49.1478C14.1167 49.3396 14.0401 49.5313 14.0656 49.7358C14.0912 49.9276 14.219 50.1193 14.4363 50.2982C14.5897 50.4133 14.7431 50.5155 14.922 50.5795C15.101 50.6434 15.2799 50.6817 15.4333 50.6817L15.3438 51.1674C15.1265 51.1674 14.9092 51.1163 14.6919 51.0268C14.4746 50.9374 14.2574 50.8095 14.0528 50.6434C13.7461 50.3238 13.5543 50.0298 13.516 49.7103ZM15.4589 48.2531C15.2672 48.2275 15.0882 48.2531 14.922 48.3553L14.6408 48.7005L15.3311 49.2757C15.7145 49.5952 16.0085 49.6208 16.213 49.3651C16.3153 49.2373 16.3536 49.0967 16.3153 48.9561C16.277 48.8155 16.1747 48.6621 15.9957 48.5215C15.8296 48.3681 15.6506 48.2914 15.4589 48.2531Z" fill="#961914"/>
<path d="M11.7007 48.4065L11.3172 47.9591L12.3526 47.0771L11.1639 45.6839L10.1413 46.5658L9.75781 46.1185L12.212 44.0349L12.5827 44.4823L11.5601 45.3515L12.7489 46.7448L13.7714 45.8756L14.1549 46.323L11.7007 48.4065Z" fill="#961914"/>
<path d="M8.63251 44.5207L8.33851 44.0094L10.3709 42.8462L7.35428 42.2966L7.09863 41.8364L9.89795 40.2386L10.1792 40.7499L8.14678 41.9131L11.1634 42.4627L11.4318 42.9229L8.63251 44.5207Z" fill="#961914"/>
<path d="M6.30641 40.0341L6.11468 39.4844L7.40569 39.0371L6.8177 37.3115L5.52669 37.7461L5.33496 37.1964L8.37714 36.1611L8.56888 36.7107L7.29065 37.1453L7.87863 38.8837L9.15686 38.4491L9.34859 38.9987L6.30641 40.0341Z" fill="#961914"/>
<path d="M4.84878 33.1189C5.02773 32.8504 5.33451 32.6843 5.75632 32.6204L7.67366 32.3264L7.76314 32.876L7.34133 32.9399C7.5075 33.0166 7.63532 33.1317 7.75036 33.2978C7.85262 33.464 7.92931 33.6685 7.96766 33.9114C8.01879 34.2693 7.98044 34.5633 7.83983 34.8061C7.69923 35.049 7.49471 35.1896 7.2135 35.2279C6.93229 35.2663 6.68943 35.2024 6.48491 35.0234C6.2804 34.8445 6.15257 34.5377 6.07588 34.0903L5.93528 33.1828L5.82023 33.1956C5.57737 33.2339 5.39842 33.3362 5.29616 33.5023C5.1939 33.6685 5.15556 33.8858 5.1939 34.167C5.21947 34.3588 5.28338 34.5377 5.37285 34.7039C5.46233 34.87 5.56459 35.0106 5.69241 35.1257L5.29616 35.4325C5.14277 35.2919 5.00217 35.1129 4.89991 34.8956C4.79765 34.6783 4.72096 34.4482 4.68261 34.1926C4.6187 33.7452 4.66983 33.3873 4.84878 33.1189ZM7.27741 33.3362C7.14959 33.1956 6.9962 33.0933 6.80447 33.055L6.35709 33.1189L6.49769 34.0008C6.57439 34.4866 6.77891 34.7039 7.09846 34.6527C7.26463 34.6272 7.37967 34.5505 7.44358 34.4099C7.5075 34.2693 7.53306 34.0903 7.49471 33.873C7.46915 33.6557 7.39245 33.4768 7.27741 33.3362Z" fill="#961914"/>
<path d="M2.6123 27.418L2.65065 26.8939L8.22372 29.2714L8.18538 29.7827L2.6123 27.418Z" fill="#961914"/>
<path d="M6.86902 22.599L6.61338 23.4555L8.4029 23.9795L8.23673 24.5547L4.15918 23.3532L4.32535 22.778L6.0893 23.3021L6.34495 22.4457L4.95168 20.6434L5.13063 20.017L6.67729 22.0622L9.23374 21.1547L9.04201 21.8193L6.86902 22.599Z" fill="#961914"/>
<path d="M8.13422 16.7576C8.37708 16.6042 8.63273 16.5275 8.91394 16.5147C9.19515 16.5019 9.47636 16.5786 9.77035 16.732C10.0516 16.8854 10.2816 17.0771 10.435 17.32C10.5884 17.5629 10.6651 17.8185 10.6779 18.0997C10.6779 18.3809 10.614 18.6621 10.4734 18.9433C10.3711 19.1479 10.2305 19.314 10.0643 19.4419C9.89817 19.5697 9.70644 19.6591 9.48914 19.6975L10.9591 20.4772L10.6907 20.9885L6.7793 18.9178L7.04772 18.4193L7.4951 18.6621C7.39285 18.4576 7.3545 18.2531 7.36728 18.0358C7.38006 17.8185 7.44397 17.6012 7.55902 17.3967C7.69962 17.1283 7.89135 16.911 8.13422 16.7576ZM10.1155 18.1892C10.1155 17.9975 10.0516 17.8185 9.9493 17.6651C9.84704 17.4989 9.69366 17.3711 9.48914 17.2561C9.2974 17.1538 9.09289 17.1027 8.90115 17.1027C8.70942 17.1027 8.53047 17.1538 8.3643 17.2561C8.21091 17.3583 8.08309 17.4989 7.98083 17.6779C7.89135 17.8568 7.84023 18.0358 7.85301 18.2275C7.86579 18.4193 7.91692 18.5982 8.01918 18.7644C8.12144 18.9306 8.27482 19.0584 8.47934 19.1606C8.67107 19.2629 8.87559 19.314 9.06732 19.314C9.25906 19.314 9.43801 19.2629 9.60418 19.1606C9.75757 19.0584 9.88539 18.9178 9.98765 18.7388C10.0771 18.5599 10.1283 18.3809 10.1155 18.1892Z" fill="#961914"/>
<path d="M12.0077 16.0673C11.7393 16.1824 11.4581 16.2079 11.1769 16.1696C10.8957 16.1312 10.6272 16.0034 10.3844 15.8117C10.1415 15.6199 9.96257 15.3899 9.86031 15.1214C9.75805 14.853 9.73248 14.5718 9.77083 14.2906C9.82196 14.0094 9.94978 13.741 10.1415 13.4853C10.346 13.2297 10.5761 13.0507 10.8445 12.9485C11.113 12.8334 11.3814 12.8078 11.6754 12.8462C11.9694 12.8845 12.225 13.0124 12.4679 13.2041C12.7108 13.3958 12.8897 13.6259 12.992 13.8943C13.0942 14.1628 13.1198 14.444 13.0814 14.7252C13.0431 15.0064 12.9153 15.2748 12.7108 15.5305C12.5062 15.7733 12.2762 15.9523 12.0077 16.0673ZM12.5446 14.6868C12.5701 14.4951 12.5446 14.3162 12.4679 14.1372C12.3912 13.9583 12.2634 13.7921 12.0972 13.6643C11.931 13.5237 11.7393 13.4342 11.5476 13.4086C11.3558 13.3575 11.1641 13.3831 10.9979 13.447C10.819 13.5237 10.6784 13.6387 10.5378 13.7921C10.4099 13.9583 10.3333 14.1244 10.3077 14.3162C10.2821 14.4951 10.3077 14.6868 10.3716 14.8658C10.4483 15.0447 10.5761 15.2109 10.7423 15.3515C10.9212 15.4921 11.1002 15.5688 11.2919 15.6072C11.4837 15.6455 11.6754 15.62 11.8416 15.556C12.0205 15.4921 12.1739 15.3771 12.3017 15.2109C12.4295 15.0447 12.519 14.8658 12.5446 14.6868Z" fill="#961914"/>
<path d="M14.4228 9.20325L16.5446 11.6191L16.11 12.0026L14.3205 9.97018L13.2851 10.8777L13.7197 11.4401C13.9882 11.7853 14.2055 12.0793 14.3461 12.3349C14.4867 12.5905 14.5762 12.8206 14.6017 13.0379C14.6145 13.2552 14.5378 13.4342 14.3716 13.5876C14.2949 13.6515 14.1927 13.7282 14.0649 13.7793L13.7709 13.3831C13.822 13.3575 13.8603 13.3319 13.8987 13.2936C14.0137 13.1913 14.0649 13.0507 14.0265 12.8973C13.9882 12.7439 13.9243 12.5778 13.8092 12.4116C13.6942 12.271 13.528 12.0409 13.3107 11.7597L12.5693 10.8266L14.4228 9.20325Z" fill="#961914"/>
<path d="M15.9951 8.04005L16.4936 7.74606L17.6952 9.75287L18.1809 6.72348L18.6283 6.45505L20.2772 9.21602L19.7787 9.51001L18.5771 7.50319L18.0914 10.5198L17.6312 10.7882L15.9951 8.04005Z" fill="#961914"/>
<path d="M22.2331 6.91521L21.6068 7.15807L22.0925 8.42352L21.5429 8.62804L20.4053 5.6242L20.9549 5.41968L21.4406 6.68513L22.0798 6.44227L22.5783 4.80614L23.1662 4.58884L22.5783 6.46783L24.3933 7.56711L23.7542 7.80997L22.2331 6.91521Z" fill="#961914"/>
<path d="M43.976 22.8931L43.1835 22.5991C41.9436 22.1389 40.5631 22.2923 39.4639 23.0209L32.3953 21.7682C31.8968 21.6788 31.4366 21.9344 31.2321 22.3818C31.0276 22.8419 31.1554 23.3532 31.5516 23.66C32.5742 24.4653 33.7758 24.9894 35.0412 25.1939L32.5742 26.0886C32.1013 26.2548 31.8201 26.715 31.8712 27.2135C31.9223 27.712 32.293 28.0955 32.7787 28.1594C34.6577 28.4278 36.5879 27.9804 38.1729 26.9323C38.2623 27.1751 38.3902 27.4052 38.5435 27.6353C38.5563 27.6481 38.5691 27.6609 38.5819 27.6736L35.5397 29.8083C34.875 30.2684 34.3382 30.8692 33.9419 31.5722C33.8397 31.7512 33.9036 31.9813 34.0825 32.0835C34.2104 32.1602 34.3765 32.1474 34.4916 32.058C34.5427 32.0324 34.581 31.9813 34.6066 31.9301C34.9517 31.3294 35.4119 30.8181 35.9743 30.4218L39.106 28.2361C40.2052 29.182 41.8542 29.297 43.1068 28.4278L44.5001 27.4436C45.0753 28.5045 45.3309 29.6932 45.2415 30.8948L45.0242 30.5752C44.9091 30.4091 44.6663 30.3579 44.5001 30.4857C44.3339 30.6008 44.2828 30.8436 44.4106 31.0098L45.855 33.0678C45.97 33.2339 46.2129 33.2851 46.3791 33.1572C46.8904 32.7993 47.5678 32.8377 48.028 33.2084L46.2129 34.4738L43.4392 32.0835C43.2858 31.9429 43.0429 31.9685 42.9023 32.1219C42.7617 32.2753 42.7873 32.5181 42.9406 32.6587L44.2956 33.8347C44.0911 34.167 43.8482 34.4866 43.5925 34.7678C43.2602 34.7422 42.9279 34.7934 42.6211 34.9212C42.5188 34.7039 42.3782 34.4994 42.2248 34.3076C41.2662 33.1828 39.6045 32.9399 38.4285 33.758C37.7766 34.2182 37.3292 34.8828 37.1758 35.6498C37.0225 36.4295 37.1758 37.2092 37.636 37.8611C37.9172 38.2702 38.2879 38.5769 38.6969 38.7814C37.227 38.807 35.7698 38.1168 34.8623 36.8258C34.4788 36.2761 34.2231 35.6498 34.0953 34.9851C34.057 34.7806 33.8652 34.64 33.6607 34.6783C33.4562 34.7167 33.3156 34.9084 33.3539 35.1129C33.4945 35.8799 33.7885 36.6085 34.2359 37.2476C34.466 37.5799 34.7344 37.8867 35.0284 38.1423C34.3893 38.8581 34.287 39.9446 34.8623 40.7627C35.5269 41.7214 36.8435 41.9514 37.8022 41.2868C38.3774 40.8777 38.7097 40.2131 38.6969 39.5228C39.7323 39.51 40.7804 39.1905 41.688 38.5641L45.0753 36.1994C45.2415 36.0844 45.2926 35.8415 45.1648 35.6753C44.9602 35.3814 44.6918 35.1513 44.3978 34.9979C44.5768 34.7806 44.7302 34.5633 44.8836 34.3332L45.9445 35.2408C46.0723 35.3558 46.264 35.3686 46.4046 35.2663L48.8077 33.5791C48.9739 33.464 49.025 33.2212 48.8972 33.055C48.2964 32.1986 47.1716 31.9174 46.264 32.3392L45.8934 31.8023C46.2129 30.1151 45.9317 28.3895 45.0753 26.9067C45.7911 26.0375 45.8678 24.7593 45.1903 23.8006C44.8963 23.3916 44.4745 23.072 43.976 22.8931ZM37.3548 40.6988C36.7412 41.1206 35.8976 40.98 35.4758 40.3664C35.0923 39.8296 35.169 39.101 35.6164 38.6408C36.3194 39.1138 37.1119 39.4078 37.93 39.51C37.9556 39.9702 37.7383 40.4304 37.3548 40.6988ZM41.2534 37.9762C40.2692 38.6664 38.927 38.4235 38.2368 37.4521C37.5465 36.4678 37.815 35.1257 38.8503 34.4099C39.7067 33.8091 40.921 34.0009 41.6369 34.8317C41.8286 35.0618 41.9692 35.3174 42.0587 35.5987C42.097 35.7137 42.1865 35.8032 42.3015 35.8415C42.4166 35.8799 42.5444 35.8671 42.6467 35.7904C43.1579 35.4325 43.8354 35.4708 44.2956 35.8415L41.2534 37.9762ZM32.0246 23.072C31.8456 22.9314 31.9095 22.7525 31.9351 22.7013C31.9607 22.6502 32.0501 22.484 32.2802 22.5224L38.7481 23.66C38.6714 23.7495 38.6075 23.839 38.5435 23.9412L36.9202 24.5292C35.1307 24.6698 33.4051 24.1457 32.0246 23.072ZM32.8938 27.418C32.6765 27.3924 32.6381 27.2007 32.6254 27.1496C32.6254 27.0984 32.6126 26.8939 32.8299 26.8172L38.0706 24.9127C37.9556 25.3089 37.93 25.7435 37.9811 26.1526C36.5239 27.2007 34.6833 27.6609 32.8938 27.418ZM44.1166 26.7917L42.6594 27.8143C41.5218 28.6068 39.9624 28.3255 39.1699 27.2007C38.3774 26.0631 38.6586 24.5036 39.7834 23.7111C40.691 23.072 41.8669 22.9186 42.9151 23.3149L43.7076 23.6089C44.0527 23.7367 44.3595 23.9668 44.564 24.2736C45.1392 25.0916 44.9475 26.2165 44.1166 26.7917Z" fill="#961914"/>
<path d="M41.4069 24.7593C41.3302 24.8104 41.2663 24.8999 41.2535 25.0022C41.2407 25.1044 41.2535 25.2067 41.3174 25.2834C41.3813 25.3601 41.458 25.424 41.5603 25.4368C41.6625 25.4495 41.7648 25.4368 41.8415 25.3729C41.9182 25.3217 41.9821 25.2322 41.9948 25.13C42.0076 25.0277 41.9948 24.9255 41.9309 24.8488C41.8798 24.7721 41.7903 24.7082 41.6881 24.6954C41.5986 24.6698 41.4963 24.6954 41.4069 24.7593Z" fill="#961914"/>
<path d="M33.9164 33.6685C33.8397 33.7197 33.7375 33.7452 33.6352 33.7325C33.533 33.7197 33.4435 33.6558 33.3924 33.5791C33.3412 33.5024 33.3157 33.4001 33.3285 33.2979C33.3412 33.1956 33.4051 33.1061 33.4818 33.055C33.5585 33.0039 33.6608 32.9783 33.763 32.9911C33.8653 33.0039 33.9548 33.0678 34.0059 33.1445C34.057 33.2212 34.0826 33.3234 34.0698 33.4257C34.057 33.5279 34.0059 33.6174 33.9164 33.6685Z" fill="#961914"/>
<path d="M25.0572 20.6945C25.2619 20.6945 25.4279 20.5286 25.4279 20.3238C25.4279 20.1191 25.2619 19.9532 25.0572 19.9532C24.8525 19.9532 24.6865 20.1191 24.6865 20.3238C24.6865 20.5286 24.8525 20.6945 25.0572 20.6945Z" fill="#961914"/>
<path d="M13.6814 35.0618L15.3558 36.9025C16.5318 38.2062 18.0657 39.1393 19.7657 39.5867L20.9161 40.865C20.9801 40.9417 21.0695 40.98 21.1718 40.98L22.2071 41.0311C22.3094 41.0311 22.3989 41.0056 22.4756 40.9416L23.0252 40.4559C23.1786 40.3153 23.1914 40.0852 23.0508 39.9446L20.9417 37.6055L21.9771 37.6566L23.1019 38.9093C23.1658 38.986 23.2553 39.0243 23.3576 39.0243L24.3929 39.0754C24.4952 39.0754 24.5847 39.0499 24.6613 38.986L25.211 38.5002C25.3644 38.3596 25.3772 38.1295 25.2365 37.9889L22.7696 35.2535C23.038 34.9468 23.2297 34.5889 23.3192 34.1926C23.4087 33.8475 23.6004 33.5279 23.8561 33.2851L25.2877 31.9941C25.7351 32.2369 26.2208 32.4159 26.7065 32.5437L27.384 32.7099L28.5344 33.9881C28.5983 34.0648 28.6878 34.1031 28.79 34.1031L29.8254 34.1543C29.9276 34.1543 30.0171 34.1287 30.0938 34.0648L30.6434 33.5791C30.7968 33.4385 30.8096 33.2084 30.669 33.0678L28.2915 30.4346L29.5697 30.7542L30.7201 32.0324C30.7841 32.1091 30.8735 32.1474 30.9758 32.1474L32.0112 32.1986C32.1134 32.1986 32.2029 32.173 32.2796 32.1091L32.8292 31.6234C32.9826 31.4828 32.9954 31.2527 32.8548 31.1121L28.9178 26.7661L28.9051 26.7789C28.9051 25.6924 28.496 24.657 27.7674 23.8517L26.7832 22.7653L27.7547 21.8833C27.8953 21.7555 28.0103 21.5893 28.087 21.4103C28.3426 20.7584 28.0231 20.0298 27.3712 19.787L26.9749 19.6336L27.4862 19.1734C27.5629 19.1095 27.6013 19.02 27.6013 18.9178L27.6524 17.8824C27.6652 17.6779 27.5118 17.5117 27.3073 17.499L26.2719 17.4478C26.1697 17.4478 26.0802 17.4734 26.0035 17.5373L25.4538 18.023C24.7764 17.2689 23.6132 17.2177 22.8718 17.8952L21.862 18.8027C21.044 19.5441 20.4815 20.5156 20.2387 21.5893C20.0342 22.5224 19.5484 23.3532 18.8454 23.9924L14.0393 28.3383C12.0708 30.1023 11.9174 33.1061 13.6814 35.0618ZM26.8471 18.7133L26.4125 19.0967L25.9268 18.5471L26.3614 18.1636L26.8727 18.1892L26.8471 18.7133ZM26.1313 22.3179L25.1471 22.075L24.4824 21.3464C24.3418 21.193 24.1117 21.1803 23.9711 21.3209L23.2681 21.96L22.7568 21.9344L22.7823 21.4231L23.4854 20.784C23.5237 20.7457 23.5621 20.6945 23.5748 20.6434L23.8433 19.9659L25.1343 18.79L26.3614 20.1449L26.093 20.3877L26.5787 20.9374L27.09 20.4772C27.1539 20.5028 27.2178 20.5539 27.2689 20.6051C27.4607 20.8223 27.4479 21.1547 27.2306 21.3464L26.1313 22.3179ZM31.1292 31.4189L30.2472 30.4474L30.7968 29.9617L32.0239 31.3166L31.8705 31.4572L31.1292 31.4189ZM27.8697 29.5782C28.3171 29.0414 28.6238 28.4022 28.7645 27.712L30.2983 29.412L29.6336 30.0128L27.8697 29.5782ZM28.9562 33.3873L28.0742 32.4159L28.6238 31.9301L29.8509 33.2851L29.6976 33.4257L28.9562 33.3873ZM23.5237 38.3085L22.6417 37.337L23.1914 36.8513L24.4185 38.2062L24.2523 38.3468L23.5237 38.3085ZM20.9545 36.8769L22.2071 35.752L22.6929 36.3017L21.9898 36.9408L20.9545 36.8769ZM21.3507 40.2642L20.4688 39.2927L21.0184 38.807L22.2455 40.1619L22.0921 40.3025L21.3507 40.2642ZM14.2182 34.5761C12.7227 32.9272 12.8505 30.3835 14.4994 28.888L19.3056 24.542C20.1236 23.8006 20.6861 22.8292 20.9289 21.7555C21.1334 20.8223 21.6192 19.9915 22.3222 19.3524L23.332 18.4448C23.6771 18.1381 24.1884 18.0742 24.5974 18.2915L23.2809 19.4802C23.2425 19.5186 23.2042 19.5697 23.1914 19.6208L22.923 20.2983L22.1688 20.9757C22.0921 21.0396 22.0538 21.1291 22.0538 21.2314L22.0026 22.2667C21.9898 22.4713 22.1432 22.6374 22.3478 22.6502L23.3831 22.7013C23.4854 22.7013 23.5749 22.6758 23.6515 22.6119L24.2012 22.1261L24.6869 22.6758C24.738 22.7269 24.8019 22.7653 24.8659 22.7908L26.0418 23.0848L27.1922 24.363C28.4577 25.7563 28.4577 27.8782 27.1922 29.2842L26.2208 28.2105L25.6711 28.6962L28.1253 31.4189L27.4607 32.0196L26.8599 31.8662C25.7734 31.5978 24.7892 30.997 24.035 30.1662L23.4854 30.6519C23.8177 31.0226 24.1884 31.3422 24.5974 31.6234L23.332 32.7738C22.9613 33.1061 22.6929 33.5535 22.5651 34.0392C22.4756 34.3843 22.2838 34.7039 22.0282 34.9468L20.0725 36.7107L18.6025 35.0746L18.0529 35.5603L20.5071 38.2829L19.8552 38.8581C18.3341 38.4363 16.9536 37.5927 15.8927 36.4039L14.2182 34.5761Z" fill="#961914"/>
</g>
<defs>
<clipPath id="clip0_6231_3127">
<rect width="60" height="60" fill="white" transform="translate(0.9375)"/>
</clipPath>
</defs>
</svg>
