<svg width="61" height="60" viewBox="0 0 61 60" fill="none" xmlns="http://www.w3.org/2000/svg">
<g clip-path="url(#clip0_6231_2908)">
<path d="M30.9373 59.9866C47.4987 59.9866 60.9244 46.561 60.9244 29.9995C60.9244 13.4381 47.4987 0.0124207 30.9373 0.0124207C14.3759 0.0124207 0.950195 13.4381 0.950195 29.9995C0.950195 46.561 14.3759 59.9866 30.9373 59.9866Z" fill="#EAD1D0"/>
<path d="M30.9376 50.4727C42.2443 50.4727 51.4103 41.3068 51.4103 30C51.4103 18.6932 42.2443 9.52728 30.9376 9.52728C19.6308 9.52728 10.4648 18.6932 10.4648 30C10.4648 41.3068 19.6308 50.4727 30.9376 50.4727Z" stroke="#961914" stroke-width="0.5" stroke-miterlimit="10"/>
<path d="M36.3908 3.40353L34.2249 3.10701L33.7221 6.79416L33.1162 6.70392L33.6964 2.50108L36.4553 2.88785L36.3908 3.40353Z" fill="#961914"/>
<path d="M36.4296 7.07778C36.2233 6.8715 36.0815 6.63944 36.0041 6.35582C35.9268 6.07219 35.9397 5.78856 36.017 5.47915C36.1073 5.16974 36.2491 4.92479 36.4553 4.71852C36.6616 4.51224 36.9066 4.38332 37.1902 4.31886C37.4738 4.2544 37.7703 4.26729 38.0798 4.34464C38.3892 4.43489 38.647 4.5767 38.8533 4.77009C39.0596 4.97636 39.2014 5.20842 39.2658 5.49205C39.3432 5.77567 39.3303 6.0593 39.2529 6.36871C39.1756 6.67812 39.0209 6.92307 38.8275 7.12935C38.6341 7.33562 38.3763 7.46454 38.0926 7.54189C37.809 7.60635 37.5125 7.60635 37.2031 7.51611C36.8937 7.42586 36.6358 7.28405 36.4296 7.07778ZM37.9122 7.02621C38.0926 6.97464 38.2602 6.8844 38.3892 6.74258C38.531 6.60077 38.6212 6.42028 38.6857 6.214C38.7501 5.99484 38.7501 5.80146 38.7115 5.60807C38.6599 5.41469 38.5825 5.25999 38.4407 5.11817C38.2989 4.97636 38.1313 4.89901 37.9379 4.83455C37.7446 4.78298 37.5512 4.77009 37.3707 4.82165C37.1902 4.87322 37.0226 4.96347 36.8937 5.10528C36.7648 5.24709 36.6616 5.42758 36.5972 5.63386C36.5327 5.85302 36.5327 6.04641 36.5714 6.23979C36.61 6.43317 36.7003 6.60077 36.8421 6.72969C36.971 6.85861 37.1386 6.96175 37.332 7.01332C37.5383 7.07778 37.7188 7.07778 37.9122 7.02621Z" fill="#961914"/>
<path d="M42.772 8.74088C42.656 8.99872 42.4626 9.15342 42.2048 9.1921C41.9469 9.24367 41.6246 9.17921 41.2507 8.99872L39.8584 8.34122L41.2379 5.4276L42.5915 6.0722C42.9396 6.2398 43.1717 6.42029 43.3006 6.65235C43.4295 6.88441 43.4424 7.10357 43.3264 7.33563C43.249 7.49034 43.1459 7.60637 43.017 7.67083C42.8752 7.74818 42.7205 7.77397 42.5529 7.76107C42.8752 8.03181 42.9525 8.367 42.772 8.74088ZM41.934 8.7022C42.0758 8.68931 42.179 8.59906 42.2563 8.45725C42.3208 8.30254 42.3337 8.17362 42.2692 8.0447C42.2048 7.91578 42.063 7.81264 41.8438 7.70951L40.9671 7.29696L40.5546 8.17362L41.4055 8.57328C41.6117 8.67642 41.7922 8.71509 41.934 8.7022ZM41.1476 6.92308L41.934 7.29696C42.1403 7.3872 42.3079 7.42588 42.4497 7.40009C42.5915 7.37431 42.6947 7.29696 42.7591 7.15514C42.8881 6.87152 42.7462 6.63946 42.3466 6.44608L41.5473 6.0722L41.1476 6.92308Z" fill="#961914"/>
<path d="M47.3362 8.98582L45.4927 11.6158L45.0672 11.3193L45.6474 10.4813L44.8867 9.93984L44.8352 9.90117L43.6749 10.3266L43.1592 9.96563L44.4355 9.5144C44.2808 9.32102 44.1905 9.11475 44.1905 8.89558C44.1777 8.6893 44.2421 8.47014 44.3968 8.27676C44.6031 7.98024 44.8738 7.81264 45.1832 7.79975C45.5055 7.78686 45.8407 7.90288 46.2017 8.16073L47.3362 8.98582ZM44.7449 9.15342C44.7965 9.32102 44.9383 9.47572 45.1575 9.63043L45.8923 10.1461L46.6143 9.11475L45.9052 8.61195C45.454 8.28965 45.093 8.30254 44.8481 8.65063C44.732 8.81823 44.6933 8.98582 44.7449 9.15342Z" fill="#961914"/>
<path d="M49.2311 14.465L48.3415 15.3545L47.9548 14.9678L48.4833 14.4392L46.5882 12.5312L46.0596 13.0597L45.6729 12.673L46.5624 11.7834L46.6784 11.8995C46.8331 12.0413 47.0394 12.0284 47.2844 11.8995C47.5422 11.7576 47.8516 11.5127 48.2384 11.1775L49.0377 10.4426L50.791 12.2089L48.8701 14.1169L49.2311 14.465ZM47.8001 12.2218C47.5809 12.3765 47.3746 12.4409 47.1941 12.428L48.4576 13.7044L50.0175 12.1573L49.0377 11.1646L48.5736 11.5771C48.29 11.8608 48.0321 12.0671 47.8001 12.2218Z" fill="#961914"/>
<path d="M52.1316 13.7946L52.4539 14.2716L50.52 15.5866L53.5626 15.9089L53.8591 16.3472L51.1904 18.1521L50.8681 17.6751L52.802 16.3601L49.7594 16.0507L49.4629 15.6124L52.1316 13.7946Z" fill="#961914"/>
<path d="M54.8138 18.0748L55.0459 18.6162L53.7953 19.1577L54.5173 20.8337L55.7678 20.2922L55.9999 20.8337L53.0476 22.11L52.8155 21.5685L54.0532 21.04L53.3183 19.364L52.0807 19.8926L51.8486 19.364L54.8138 18.0748Z" fill="#961914"/>
<path d="M56.7989 24.8818C56.6442 25.1655 56.3477 25.3459 55.9352 25.4491L54.0529 25.9003L53.924 25.3588L54.3365 25.2557C54.1689 25.1912 54.0271 25.0881 53.9111 24.9334C53.7951 24.7787 53.7048 24.5724 53.6532 24.3404C53.5759 23.9923 53.5888 23.6957 53.7048 23.4379C53.8208 23.193 54.0271 23.0254 54.2979 22.9609C54.5686 22.8964 54.8135 22.948 55.0327 23.1027C55.2519 23.2574 55.4066 23.5668 55.5097 24.0052L55.7289 24.9076L55.8449 24.8818C56.0899 24.8303 56.2575 24.7142 56.3606 24.5337C56.4637 24.3532 56.4766 24.1341 56.4122 23.8633C56.3735 23.6829 56.2961 23.5024 56.193 23.3477C56.0899 23.1801 55.9738 23.0511 55.8449 22.9609L56.2188 22.6257C56.3864 22.7546 56.5282 22.9222 56.6571 23.1285C56.786 23.3348 56.8763 23.5668 56.9279 23.8247C56.9923 24.2372 56.9665 24.5982 56.7989 24.8818ZM54.3752 24.856C54.5041 24.985 54.6717 25.0752 54.8651 25.101L55.3034 24.9979L55.0972 24.1212C54.9811 23.6442 54.762 23.4379 54.4397 23.5153C54.285 23.5539 54.1689 23.6442 54.1174 23.786C54.0529 23.9278 54.0529 24.1083 54.1045 24.3275C54.156 24.5466 54.2463 24.7271 54.3752 24.856Z" fill="#961914"/>
<path d="M59.4936 30.3868L59.5065 30.9153L53.7695 28.9815V28.4529L59.4936 30.3868Z" fill="#961914"/>
<path d="M58.2947 34.6025L58.1529 35.1827L54.9686 34.422L57.5728 37.6322L57.4438 38.1736L53.3184 37.1938L53.4602 36.6137L56.6445 37.3743L54.0532 34.1642L54.1821 33.6227L58.2947 34.6025Z" fill="#961914"/>
<path d="M55.7161 39.9141L55.4712 40.4426L54.2335 39.8625L53.46 41.5256L54.6976 42.1057L54.4527 42.6343L51.5391 41.2806L51.784 40.752L53.0088 41.3193L53.7823 39.6562L52.5575 39.089L52.8025 38.5604L55.7161 39.9141Z" fill="#961914"/>
<path d="M49.3476 45.4061L48.3291 44.6712L48.6385 44.2329L49.2444 44.6712L50.8173 42.4925L50.2114 42.0541L50.5337 41.6029L51.5521 42.3378L51.449 42.4796C51.333 42.6601 51.3716 42.8535 51.5521 43.0726C51.7326 43.2918 52.0291 43.5754 52.4159 43.8848L53.2668 44.5552L51.81 46.5793L49.6054 45.0064L49.3476 45.4061ZM51.3201 43.627C51.1396 43.4336 51.0365 43.2402 51.0107 43.0726L49.9664 44.5423L51.7455 45.8186L52.5577 44.6841L52.0678 44.2974C51.7584 44.0524 51.5135 43.8204 51.3201 43.627Z" fill="#961914"/>
<path d="M47.1431 48.8741L49.0125 47.0563C48.7933 46.8758 48.5355 46.7985 48.2647 46.8243C47.994 46.85 47.749 46.9661 47.517 47.1852C47.2462 47.456 47.1044 47.7654 47.1173 48.1135L46.6274 48.0619C46.6145 47.8427 46.6532 47.6236 46.7434 47.4044C46.8337 47.1852 46.9755 46.9919 47.1689 46.8114C47.4138 46.5793 47.6846 46.4117 47.9682 46.3343C48.2518 46.257 48.5355 46.2441 48.8191 46.3343C49.0898 46.4117 49.3477 46.5664 49.5668 46.7985C49.786 47.0176 49.9278 47.2755 50.0052 47.5462C50.0825 47.8298 50.0825 48.1006 50.0052 48.3713C49.9278 48.642 49.7731 48.887 49.5539 49.0933C49.3348 49.3124 49.0898 49.4414 48.8191 49.5187C48.5483 49.5832 48.2776 49.5703 48.0069 49.4929C47.7361 49.4156 47.4912 49.248 47.2591 49.0159C47.2205 48.9772 47.1818 48.9257 47.1431 48.8741ZM49.541 48.0619C49.5539 47.8041 49.4766 47.572 49.309 47.3528L47.8264 48.7839C48.0327 48.9515 48.2647 49.0417 48.5226 49.0288C48.7804 49.0288 48.9996 48.9257 49.2058 48.7323C49.4121 48.5389 49.5153 48.3197 49.541 48.0619Z" fill="#961914"/>
<path d="M47.0265 51.2591L46.5366 51.5814L45.2345 49.6347L44.8864 52.6773L44.4481 52.9738L42.6689 50.2922L43.1588 49.9699L44.461 51.9166L44.7962 48.8741L45.2345 48.5776L47.0265 51.2591ZM46.7042 52.2389C46.9234 52.2647 47.1038 52.3936 47.2585 52.6128L46.9362 52.832C46.846 52.7159 46.7429 52.6386 46.6139 52.6128C46.485 52.587 46.3432 52.6257 46.2014 52.7159C46.0596 52.8062 45.9822 52.9222 45.9435 53.0511C45.9049 53.1801 45.9307 53.309 46.008 53.4379L45.6728 53.6571C45.531 53.425 45.4794 53.2059 45.5439 52.9996C45.6084 52.7933 45.7631 52.5999 46.008 52.4323C46.253 52.2776 46.4979 52.2132 46.7042 52.2389Z" fill="#961914"/>
<path d="M40.8514 52.6773L41.4573 52.4065L40.9159 51.156L41.4445 50.924L42.7208 53.8763L42.1793 54.1083L41.6378 52.8578L41.019 53.1285L40.6065 54.7916L40.0392 55.0365L40.542 53.1285L38.6855 52.1229L39.3173 51.8522L40.8514 52.6773Z" fill="#961914"/>
<path d="M36.52 55.7198C36.2364 55.5651 36.043 55.2815 35.9399 54.856L35.4629 52.9738L36.0044 52.832L36.1075 53.2445C36.1591 53.0769 36.2751 52.9351 36.4298 52.8062C36.5845 52.6902 36.7779 52.5999 37.0228 52.5355C37.3709 52.4452 37.6674 52.4581 37.9253 52.5741C38.1831 52.6902 38.3378 52.8835 38.4152 53.1543C38.4797 53.425 38.441 53.67 38.2863 53.8891C38.1316 54.1083 37.835 54.2759 37.3967 54.379L36.5072 54.6111L36.5329 54.7271C36.5974 54.9721 36.7134 55.1397 36.881 55.2299C37.0486 55.3202 37.2807 55.333 37.5514 55.2686C37.7319 55.217 37.9124 55.1526 38.0671 55.0365C38.2218 54.9205 38.3507 54.8174 38.4539 54.6755L38.802 55.0365C38.673 55.2041 38.5054 55.3588 38.2992 55.4749C38.0929 55.6038 37.8608 55.694 37.6159 55.7585C37.1647 55.9003 36.8037 55.8745 36.52 55.7198ZM36.5072 53.2961C36.3782 53.425 36.3009 53.5926 36.2751 53.786L36.3782 54.2243L37.242 54.0052C37.719 53.8891 37.9253 53.67 37.835 53.3477C37.7964 53.193 37.7061 53.0769 37.5643 53.0254C37.4225 52.9609 37.242 52.9609 37.0228 53.0254C36.8166 53.064 36.6361 53.1543 36.5072 53.2961Z" fill="#961914"/>
<path d="M24.8004 56.416L26.9534 56.7899L27.5722 53.1285L28.1653 53.2316L27.4433 57.4216L24.6973 56.9575L24.8004 56.416Z" fill="#961914"/>
<path d="M24.8652 52.7288C25.0715 52.9351 25.2004 53.1801 25.2778 53.4637C25.3422 53.7473 25.3294 54.0309 25.2391 54.3403C25.1489 54.6498 24.9942 54.8947 24.7879 55.0881C24.5816 55.2815 24.3367 55.4104 24.053 55.4749C23.7694 55.5393 23.4729 55.5264 23.1635 55.4233C22.8541 55.333 22.5962 55.1912 22.4028 54.985C22.1966 54.7787 22.0676 54.5337 22.0032 54.263C21.9387 53.9794 21.9516 53.6957 22.0419 53.3863C22.1321 53.0898 22.2739 52.832 22.4931 52.6386C22.7122 52.4452 22.9443 52.3163 23.2279 52.2518C23.5116 52.1874 23.8081 52.2003 24.1175 52.2905C24.414 52.3679 24.659 52.5226 24.8652 52.7288ZM23.3826 52.7417C23.2021 52.7933 23.0346 52.8835 22.9056 53.0125C22.7638 53.1543 22.6607 53.3219 22.5962 53.541C22.5318 53.7602 22.5189 53.9536 22.5575 54.147C22.5962 54.3403 22.6865 54.5079 22.8154 54.6369C22.9443 54.7787 23.1119 54.8689 23.3053 54.9334C23.4987 54.9978 23.692 54.9978 23.8725 54.9592C24.053 54.9205 24.2206 54.8302 24.3624 54.6884C24.5043 54.5466 24.6074 54.379 24.6719 54.1599C24.7363 53.9407 24.7492 53.7473 24.6976 53.5539C24.659 53.3605 24.5687 53.1929 24.4398 53.064C24.3109 52.9222 24.1433 52.832 23.9499 52.7675C23.7565 52.703 23.5631 52.703 23.3826 52.7417Z" fill="#961914"/>
<path d="M18.5865 50.8853C18.7154 50.6274 18.9088 50.4856 19.1667 50.4469C19.4245 50.4082 19.7468 50.4856 20.1207 50.679L21.5001 51.3881L20.0433 54.2501L18.7154 53.5668C18.3802 53.3992 18.1482 53.193 18.0193 52.9738C17.8903 52.7546 17.8903 52.5226 18.0064 52.2776C18.0837 52.1229 18.1869 52.0198 18.3287 51.9553C18.4705 51.8908 18.6252 51.8651 18.7928 51.878C18.4705 51.5814 18.3931 51.2591 18.5865 50.8853ZM20.1594 52.7546L19.3858 52.355C19.1924 52.2518 19.0249 52.2131 18.883 52.2389C18.7412 52.2518 18.6381 52.3421 18.5736 52.471C18.4318 52.7417 18.5607 52.9867 18.9733 53.1929L19.7468 53.5926L20.1594 52.7546ZM19.4116 50.9497C19.2698 50.9626 19.1538 51.04 19.0893 51.1818C19.012 51.3365 19.012 51.4654 19.0635 51.5814C19.128 51.7104 19.2698 51.8264 19.4761 51.9295L20.3398 52.3679L20.7782 51.5041L19.9402 51.0786C19.7339 50.9884 19.5534 50.9368 19.4116 50.9497Z" fill="#961914"/>
<path d="M14.0225 50.4856L15.9563 47.9201L16.3688 48.2295L15.7629 49.0417L16.5106 49.6089L16.5622 49.6476L17.7354 49.2609L18.2382 49.6347L16.949 50.0473C17.1037 50.2536 17.181 50.4598 17.181 50.6661C17.181 50.8724 17.1037 51.0786 16.9619 51.2849C16.7427 51.5814 16.472 51.7233 16.1626 51.7361C15.8403 51.7361 15.5051 51.6072 15.157 51.3494L14.0225 50.4856ZM16.6138 50.4083C16.5622 50.2407 16.4333 50.086 16.2141 49.9184L15.5051 49.3769L14.7444 50.3954L15.4406 50.9111C15.8918 51.2462 16.2399 51.2462 16.4978 50.9111C16.6138 50.7306 16.6525 50.563 16.6138 50.4083Z" fill="#961914"/>
<path d="M12.3338 44.9807L13.2491 44.1169L13.623 44.5166L13.0815 45.0193L14.9122 46.979L15.4537 46.4762L15.8276 46.8758L14.9122 47.7267L14.7962 47.5978C14.6415 47.456 14.4481 47.456 14.1903 47.5849C13.9324 47.7138 13.6101 47.9459 13.2233 48.2811L12.3982 48.9901L10.6836 47.1852L12.6561 45.3416L12.3338 44.9807ZM13.6875 47.2755C13.9195 47.1337 14.1129 47.0692 14.2934 47.0821L13.0686 45.7671L11.4571 47.2626L12.4111 48.2811L12.8881 47.8814C13.1976 47.6236 13.4554 47.4173 13.6875 47.2755Z" fill="#961914"/>
<path d="M9.39433 45.535L9.08492 45.0451L11.0574 43.7946L8.02777 43.3821L7.74414 42.9308L10.4644 41.2162L10.7738 41.7061L8.7884 42.9566L11.8181 43.3692L12.1017 43.8204L9.39433 45.535Z" fill="#961914"/>
<path d="M6.84193 41.1646L6.62276 40.6231L7.88619 40.1203L7.22869 38.4186L5.96526 38.9214L5.74609 38.3799L8.73707 37.1938L8.95623 37.7353L7.7057 38.2252L8.37609 39.9269L9.62663 39.437L9.84579 39.9785L6.84193 41.1646Z" fill="#961914"/>
<path d="M5.07552 34.3447C5.24312 34.0739 5.53963 33.8934 5.96507 33.8032L7.86022 33.4164L7.97625 33.9579L7.55081 34.0353C7.71841 34.0997 7.86022 34.2157 7.97625 34.3704C8.09228 34.5252 8.16963 34.7314 8.2212 34.9764C8.29855 35.3245 8.27277 35.6339 8.14385 35.8788C8.01492 36.1238 7.80865 36.2785 7.53791 36.3301C7.25429 36.3816 7.00934 36.3301 6.80306 36.1625C6.59679 35.9949 6.44208 35.6854 6.35184 35.2471L6.17135 34.3447L6.05532 34.3704C5.81037 34.422 5.62988 34.5252 5.53963 34.7056C5.4365 34.8732 5.41071 35.0924 5.47517 35.376C5.51385 35.5565 5.57831 35.737 5.68145 35.9046C5.78458 36.0722 5.88772 36.2011 6.01664 36.3043L5.64277 36.6266C5.47517 36.4848 5.33336 36.3172 5.21733 36.1109C5.1013 35.9046 5.01106 35.6726 4.95949 35.4147C4.86924 34.9764 4.90792 34.6154 5.07552 34.3447ZM7.49924 34.4349C7.37032 34.2931 7.20272 34.2157 7.00934 34.1771L6.571 34.2673L6.7515 35.144C6.85463 35.6339 7.06091 35.8402 7.38321 35.7628C7.53792 35.7241 7.65394 35.6468 7.71841 35.505C7.78287 35.3631 7.79576 35.1827 7.74419 34.9635C7.71841 34.7572 7.62816 34.5767 7.49924 34.4349Z" fill="#961914"/>
<path d="M2.54883 28.7366L2.56172 28.208L8.24715 30.3094L8.23426 30.838L2.54883 28.7366Z" fill="#961914"/>
<path d="M3.88965 24.5337L4.04435 23.9536L7.20293 24.8174L4.70185 21.5299L4.84367 20.9884L8.94337 22.11L8.78866 22.6773L5.63009 21.8135L8.11827 25.101L7.97646 25.6424L3.88965 24.5337Z" fill="#961914"/>
<path d="M6.62305 19.3253L6.88089 18.8096L8.10564 19.4285L8.93074 17.7912L7.70599 17.1723L7.97672 16.6566L10.8517 18.1135L10.5938 18.6291L9.39486 18.0232L8.56976 19.6605L9.76873 20.2664L9.51089 20.7821L6.62305 19.3253Z" fill="#961914"/>
<path d="M13.1846 14.0137L14.1773 14.7744L13.8421 15.2127L13.2491 14.7615L11.6118 16.8887L12.2048 17.3399L11.8696 17.7783L10.877 17.0176L10.9801 16.8887C11.0961 16.7211 11.0703 16.5148 10.8898 16.2828C10.7094 16.0507 10.4386 15.7671 10.0519 15.4319L9.21387 14.7357L10.7351 12.7503L12.8752 14.4005L13.1846 14.0137ZM11.1477 15.7284C11.3282 15.9347 11.4184 16.1152 11.4313 16.2957L12.5271 14.8646L10.7867 13.5238L9.93583 14.6326L10.4128 15.0322C10.7222 15.2901 10.9672 15.5221 11.1477 15.7284Z" fill="#961914"/>
<path d="M15.4801 10.636L13.5463 12.3894C13.7654 12.5698 14.0104 12.6601 14.2811 12.6472C14.5519 12.6343 14.8097 12.5183 15.0418 12.312C15.3254 12.0542 15.4672 11.7447 15.4672 11.3967L15.9571 11.4611C15.9571 11.6803 15.9184 11.8994 15.8153 12.1186C15.7121 12.3249 15.5703 12.5312 15.3641 12.7117C15.1062 12.9437 14.8484 13.0855 14.5519 13.1629C14.2682 13.2402 13.9846 13.2273 13.701 13.1371C13.4431 13.0211 13.1982 12.8664 12.9919 12.6343C12.7856 12.4022 12.6438 12.1444 12.5794 11.8737C12.5149 11.59 12.5278 11.3193 12.6051 11.0486C12.6954 10.7778 12.8501 10.5458 13.0822 10.3395C13.3142 10.1332 13.5592 9.99141 13.8299 9.93985C14.1006 9.88828 14.3714 9.90117 14.6421 9.99141C14.9128 10.0817 15.1578 10.2493 15.377 10.4942C15.4027 10.52 15.4414 10.5716 15.4801 10.636ZM13.0693 11.358C13.0435 11.6158 13.1079 11.8479 13.2755 12.067L14.7968 10.6747C14.5905 10.4942 14.3585 10.404 14.1006 10.404C13.8428 10.404 13.6107 10.4942 13.4045 10.6876C13.2111 10.881 13.095 11.1001 13.0693 11.358Z" fill="#961914"/>
<path d="M16.021 7.28407C15.8018 7.2454 15.6213 7.11648 15.4795 6.88442L15.8147 6.67814C15.892 6.80706 16.0081 6.88442 16.137 6.89731C16.2659 6.92309 16.4077 6.89731 16.5495 6.80706C16.6914 6.71682 16.7816 6.61368 16.8203 6.48476C16.859 6.35584 16.8461 6.22692 16.7687 6.098L17.1168 5.87883C17.2586 6.11089 17.2973 6.33005 17.2199 6.54922C17.1555 6.7555 16.9879 6.94888 16.7429 7.10358C16.4722 7.25829 16.2401 7.32275 16.021 7.28407ZM15.6729 8.25098L16.1628 7.94157L17.4004 9.92696L17.8388 6.89731L18.29 6.61368L19.9917 9.34681L19.5018 9.65623L18.2642 7.67084L17.813 10.7005L17.3617 10.9841L15.6729 8.25098Z" fill="#961914"/>
<path d="M21.8865 7.02622L21.2677 7.27117L21.7705 8.5346L21.229 8.75377L20.043 5.76279L20.5844 5.54363L21.0872 6.80706L21.7189 6.54921L22.1831 4.89902L22.7632 4.66696L22.2088 6.56211L24.0395 7.63215L23.3949 7.89L21.8865 7.02622Z" fill="#961914"/>
<path d="M26.3095 4.12549C26.5802 4.29309 26.7736 4.57672 26.8638 5.00216L27.2764 6.8973L26.7349 7.01333L26.6446 6.60078C26.5802 6.76838 26.477 6.91019 26.3095 7.02622C26.1547 7.14225 25.9485 7.2325 25.7164 7.28407C25.3683 7.36142 25.0589 7.33563 24.814 7.21961C24.569 7.09068 24.4143 6.8973 24.3498 6.61368C24.2854 6.34294 24.337 6.09799 24.5046 5.87882C24.6721 5.67255 24.9687 5.51784 25.407 5.41471L26.3095 5.22132L26.2837 5.1053C26.2321 4.86034 26.1161 4.69275 25.9485 4.58961C25.7809 4.48647 25.5488 4.47358 25.2781 4.53804C25.0976 4.57672 24.9171 4.65407 24.7495 4.74432C24.5819 4.84745 24.453 4.96348 24.3498 5.0924L24.0146 4.71853C24.1436 4.55093 24.3241 4.40912 24.5303 4.29309C24.7366 4.17706 24.9687 4.08682 25.2265 4.03525C25.6777 3.93211 26.0387 3.95789 26.3095 4.12549ZM26.2579 6.54921C26.3868 6.42029 26.477 6.2527 26.5157 6.05931L26.4126 5.62098L25.5359 5.81436C25.046 5.9175 24.8526 6.13667 24.9171 6.45897C24.9558 6.61368 25.0331 6.7297 25.1878 6.79416C25.3296 6.85863 25.5101 6.87152 25.7293 6.81995C25.9485 6.76838 26.1161 6.67814 26.2579 6.54921Z" fill="#961914"/>
<path d="M45.1329 30.2578C45.0427 30.1418 44.9137 30.0773 44.7719 30.0773C44.6172 30.0773 44.4625 30.0258 44.3465 29.9226C43.9726 29.6519 43.5214 29.5359 43.0057 29.6003C43.1991 29.2522 43.3151 28.8526 43.3151 28.44V28.4143C43.3151 28.1564 43.1088 27.963 42.851 27.963C42.5932 27.963 42.3998 28.1693 42.3998 28.4271V28.4529C42.3998 28.9042 42.1806 29.3296 41.8067 29.5874C41.4715 29.4327 41.0977 29.3425 40.698 29.3554C40.2984 29.3683 39.9245 29.4456 39.5893 29.6132C39.2154 29.3683 38.9834 28.9428 38.9834 28.4916V28.4658C38.9834 28.208 38.7771 28.0146 38.5192 28.0146C38.2614 28.0146 38.068 28.2209 38.068 28.4787V28.5045C38.068 28.917 38.184 29.3167 38.3903 29.6519C37.8875 29.6003 37.4234 29.7164 37.0624 29.9871C36.9335 30.0902 36.7917 30.1418 36.637 30.1418C36.4952 30.1418 36.3663 30.2192 36.2889 30.3223C36.2115 30.4254 36.1729 30.5801 36.2115 30.7091C36.3147 31.1087 36.4952 31.431 36.7272 31.676C36.0826 31.8049 35.4251 31.8693 34.7676 31.8693L27.677 31.9338H27.6641L25.395 31.9596C23.2807 31.9725 21.579 33.7129 21.5919 35.8272L21.6177 39.4628C21.6177 39.7207 21.8239 39.914 22.0818 39.914C22.3396 39.914 22.533 39.7078 22.533 39.4499L22.5072 35.8143C22.4943 34.4349 23.4612 33.2617 24.7504 32.9523C24.6602 33.0296 24.57 33.1199 24.4797 33.1972C23.7706 33.9192 23.3452 34.8603 23.2807 35.8659C23.2807 35.8788 23.2807 35.9046 23.2807 35.9175C23.2807 36.0077 23.2678 36.098 23.2678 36.1882L23.2807 37.0262C23.2936 37.8771 23.5386 38.7022 23.9898 39.4241C24.4152 40.0816 24.9954 40.6231 25.6787 40.9841L26.1299 42.4538L26.1557 45.7155C26.1557 46.1667 26.5296 46.5277 26.9808 46.5277L30.539 46.5019C30.8355 46.5019 31.1063 46.3472 31.2481 46.0894C31.4028 45.8315 31.4028 45.5221 31.261 45.2643L30.9773 44.7357L30.9516 41.9639L34.7161 41.9252C34.8192 42.1315 34.9481 42.3249 35.1028 42.5054L35.1286 45.6381C35.1286 46.0894 35.5025 46.4503 35.9537 46.4503L39.2154 46.4246C39.5119 46.4246 39.7827 46.2699 39.9245 46.012C40.0792 45.7542 40.0792 45.4448 39.9374 45.1869L39.6537 44.6583L39.628 42.3635C39.9503 42.0026 40.221 41.59 40.4273 41.1517C41.7938 40.3008 42.7092 38.7924 42.735 37.0649C43.3796 36.7941 43.8308 36.1495 43.8179 35.4018V35.1955C43.8179 34.7185 43.6245 34.2931 43.328 33.9837C43.3409 33.945 43.3409 33.9063 43.3409 33.8805L43.328 32.1401C43.3538 32.1401 43.3925 32.1401 43.4311 32.1401C43.689 32.1401 43.9984 32.0885 44.3078 31.9209C44.759 31.676 45.0684 31.2376 45.2232 30.6188C45.2489 30.5157 45.2232 30.3739 45.1329 30.2578ZM42.4127 31.9467L42.4256 33.4938C42.2966 33.468 42.1677 33.4551 42.0259 33.4551L39.4475 33.4809C39.3057 33.4809 39.1767 33.4938 39.0478 33.5324L39.0349 31.9854C39.022 31.0571 39.7827 30.2836 40.7109 30.2836C41.6391 30.2707 42.3998 31.0185 42.4127 31.9467ZM37.6168 30.7091C37.8875 30.5028 38.2485 30.5286 38.4935 30.593C38.3645 30.7993 38.2614 31.0314 38.1969 31.2763C38.0551 31.3021 37.7973 31.315 37.5652 31.199C37.4492 31.1345 37.3461 31.0442 37.2687 30.9153C37.3976 30.8638 37.5137 30.7993 37.6168 30.7091ZM32.2794 33.1586C32.2794 32.9781 32.4213 32.8363 32.6018 32.8234L34.6516 32.8105C35.322 32.8105 35.8764 33.3648 35.8764 34.0352C35.8764 34.7185 35.3349 35.2858 34.6516 35.2858L31.0031 35.3115C30.7582 35.3115 30.5519 35.1182 30.5519 34.8603C30.5519 34.6154 30.7453 34.4091 31.0031 34.4091H31.0418C31.7251 34.4091 32.2794 33.8418 32.2794 33.1586ZM24.7247 38.8698C24.4024 38.3283 24.209 37.6966 24.209 37.0391V36.3945L27.8574 36.3687C28.1024 36.3687 28.3087 36.5621 28.3087 36.8199C28.3087 37.0649 28.1153 37.2711 27.8574 37.2711H27.8188C27.1355 37.2711 26.5682 37.8384 26.5811 38.5346C26.5811 38.7151 26.4393 38.8698 26.2459 38.8698H24.7247ZM30.1265 45.0967L30.3972 45.5995L29.469 45.6124C29.4561 45.5092 29.4303 45.4061 29.3658 45.3029L29.0822 44.7744L29.0564 42.4796C29.1982 42.3249 29.3272 42.1573 29.4432 41.9897H30.0362L30.062 44.8775C30.062 44.9549 30.0878 45.0322 30.1265 45.0967ZM38.79 45.0193L39.0607 45.5221L38.0809 45.535C38.068 45.4061 38.0164 45.2772 37.9391 45.1611L37.7715 44.9033L37.7457 42.4022C37.8875 42.2346 38.0293 42.067 38.1454 41.8994C38.4032 41.8865 38.6739 41.8479 38.9189 41.7834C38.8931 41.8221 38.8544 41.8479 38.8287 41.8865C38.7384 41.9768 38.6997 42.0928 38.6997 42.2088L38.7255 44.8002C38.7384 44.8775 38.7513 44.9549 38.79 45.0193ZM38.9963 39.1534V38.6248C38.9963 38.367 38.79 38.1736 38.5321 38.1736C38.2743 38.1736 38.0809 38.3799 38.0809 38.6377V39.1663C38.0809 39.8754 37.9004 40.5586 37.5523 41.1646C37.5265 41.2033 37.5008 41.2419 37.475 41.2806C37.3332 41.4998 37.1656 41.7189 36.9722 41.9123C36.8819 42.0026 36.8433 42.1186 36.8433 42.2346L36.869 45.058C36.869 45.1482 36.8948 45.2385 36.9464 45.3158L37.114 45.5608L36.044 45.5737L36.0182 42.3506C36.0182 42.2217 35.9666 42.1057 35.8764 42.0155C35.5798 41.7318 35.3993 41.3451 35.3993 40.9325L35.3865 40.0301C35.3865 39.7722 35.1802 39.5788 34.9223 39.5788C34.6645 39.5788 34.4711 39.7851 34.4711 40.043L34.484 40.9454C34.484 40.9841 34.484 41.0228 34.484 41.0614L29.9589 41.1001C30.1909 40.52 30.3198 39.9011 30.307 39.2565V38.728C30.307 38.4701 30.1007 38.2767 29.8428 38.2767C29.585 38.2767 29.3916 38.483 29.3916 38.7409V39.2694C29.4045 40.3008 29.0048 41.2806 28.2829 42.0155C28.1926 42.1057 28.154 42.2217 28.154 42.3378L28.1797 44.9291C28.1797 45.0064 28.2055 45.0838 28.2313 45.1482L28.5021 45.651L27.071 45.6639L27.0452 42.4409C27.0452 42.4022 27.0323 42.3506 27.0195 42.312L26.5038 40.5844C26.4651 40.4684 26.3749 40.3524 26.2588 40.3008C25.9752 40.1719 25.7174 40.0043 25.4982 39.798L26.2459 39.7851C26.9292 39.7851 27.4965 39.2179 27.4836 38.5217C27.4836 38.3412 27.6254 38.1865 27.8188 38.1865H27.8574C28.6052 38.1736 29.224 37.5677 29.2111 36.807C29.1982 36.0593 28.5923 35.4405 27.8317 35.4534L24.2605 35.4791C24.3895 34.8732 24.686 34.306 25.1372 33.8547C25.756 33.223 26.5811 32.8749 27.4707 32.862L31.4028 32.8234C31.377 32.9265 31.3641 33.0425 31.3641 33.1586C31.3641 33.339 31.2223 33.4938 31.0289 33.4938H30.9902C30.2425 33.5066 29.6237 34.1126 29.6366 34.8732C29.6495 35.621 30.2554 36.2398 31.016 36.2269L34.6645 36.2011C35.8506 36.1882 36.8175 35.2213 36.8046 34.0223C36.8046 33.5195 36.6241 33.0554 36.3276 32.6815C36.9335 32.5913 37.5394 32.4624 38.1196 32.2819L38.1325 33.945C38.1325 33.9837 38.1325 34.0223 38.1454 34.0481C37.8489 34.3704 37.6684 34.7959 37.6684 35.2729V35.4791C37.6813 36.4589 38.4806 37.2583 39.4733 37.2454L41.8196 37.2196C41.7294 39.0245 40.4144 40.52 38.6868 40.8938C38.8931 40.3524 39.0091 39.7593 38.9963 39.1534ZM42.9155 35.4405C42.9155 35.9175 42.5287 36.3171 42.0517 36.3171L39.4733 36.3429C38.9962 36.3429 38.5966 35.9562 38.5966 35.4791V35.2729C38.5966 34.7959 38.9834 34.3962 39.4604 34.3962L42.0388 34.3704C42.5158 34.3704 42.9155 34.7572 42.9155 35.2342V35.4405ZM43.8695 31.1474C43.6374 31.2763 43.3796 31.2634 43.2378 31.2376C43.1733 30.9927 43.0573 30.7735 42.9284 30.5543C43.1733 30.4899 43.5343 30.4512 43.805 30.6575C43.9082 30.7348 44.0371 30.8122 44.1531 30.8638C44.0629 30.9798 43.9726 31.0829 43.8695 31.1474Z" fill="#961914"/>
<path d="M39.125 31.7533C39.125 32.0111 39.3313 32.2045 39.5891 32.2045H39.602C39.8599 32.2045 40.0532 31.9983 40.0532 31.7404C40.0532 31.4826 39.847 31.2892 39.5891 31.2892H39.5762C39.3184 31.2892 39.125 31.4955 39.125 31.7533Z" fill="#961914"/>
<path d="M41.4973 32.1788C41.7552 32.1788 41.9614 31.9725 41.9614 31.7147C41.9614 31.4568 41.7552 31.2634 41.4973 31.2634H41.4844C41.2266 31.2634 41.0332 31.4697 41.0332 31.7275C41.0332 31.9854 41.2395 32.1917 41.4973 32.1788Z" fill="#961914"/>
<path d="M39.679 34.9635C39.4211 34.9635 39.2148 35.1697 39.2148 35.4276C39.2148 35.6854 39.4211 35.8788 39.679 35.8788H39.6919C39.9497 35.8788 40.1431 35.6725 40.1431 35.4147C40.1431 35.1568 39.9368 34.9506 39.679 34.9635Z" fill="#961914"/>
<path d="M41.5999 34.9377C41.342 34.9377 41.1357 35.144 41.1357 35.4018C41.1357 35.6596 41.342 35.853 41.5999 35.853H41.6128C41.8706 35.853 42.064 35.6468 42.064 35.3889C42.0511 35.144 41.8448 34.9377 41.5999 34.9377Z" fill="#961914"/>
<path d="M21.9913 40.8294C21.8752 40.8294 21.7592 40.8809 21.669 40.9712C21.5787 41.0614 21.54 41.1775 21.54 41.2935C21.54 41.4095 21.5916 41.5256 21.6819 41.6158C21.7721 41.706 21.8881 41.7447 22.0042 41.7447C22.1202 41.7447 22.2362 41.6932 22.3265 41.6029C22.4167 41.5127 22.4554 41.3966 22.4554 41.2806C22.4554 41.1646 22.4038 41.0485 22.3136 40.9583C22.2233 40.8809 22.1073 40.8294 21.9913 40.8294Z" fill="#961914"/>
<path d="M23.0745 24.0696C23.6417 23.8633 24.7247 23.6829 25.9108 23.8633C27.3805 24.0825 28.6052 24.7916 29.4561 25.9132C29.5335 26.0163 29.5592 26.1581 29.5077 26.2742C29.4561 26.3902 29.3401 26.4804 29.2112 26.4933C29.1983 26.4933 28.2056 26.6223 27.0968 26.8801L27.3805 27.6278C27.4578 27.8212 27.3547 28.0275 27.1613 28.1049C27.1226 28.1177 27.0839 28.1306 27.0453 28.1306C26.8906 28.1306 26.723 28.0404 26.6714 27.8857L26.362 27.0864C26.2073 27.1251 26.0526 27.1766 25.8979 27.2282C25.885 27.2282 25.885 27.2282 25.8721 27.2282L26.1815 28.0017C26.2589 28.1951 26.1557 28.4014 25.9623 28.4787C25.9237 28.4916 25.885 28.5045 25.8463 28.5045C25.6916 28.5045 25.5369 28.4143 25.4724 28.2596L25.163 27.486C25.0728 27.5118 24.9825 27.5505 24.8923 27.5763C24.3379 27.7697 23.9254 27.9115 23.6546 27.9502C23.6417 27.9502 23.6289 27.9502 23.6289 27.9502C23.4355 27.963 23.255 27.8083 23.2292 27.615C23.2034 27.4087 23.3452 27.2282 23.5515 27.2024C23.732 27.1766 24.1703 27.0348 24.6216 26.8672C24.8149 26.8027 25.0212 26.7254 25.2404 26.648C25.3693 26.6094 25.4982 26.5578 25.64 26.5191C25.8979 26.4418 26.1815 26.3515 26.478 26.2742C27.2129 26.0808 27.9348 25.9519 28.4247 25.8745C26.6456 24.1083 24.0156 24.5466 23.3452 24.7916C22.8166 24.985 21.9529 25.4362 22.0689 26.3C22.0947 26.5062 21.9529 26.6867 21.7466 26.7125C21.5403 26.7383 21.3469 26.5836 21.3212 26.3902C21.1922 25.3588 21.824 24.5208 23.0745 24.0696Z" fill="#961914"/>
<path d="M19.9155 20.6919C19.5931 21.6459 18.652 24.6498 18.9872 26.8543C18.9872 26.8672 18.9872 26.8801 18.9872 26.8801C19.1161 27.9501 19.8252 28.9299 20.9984 29.6261C21.7848 30.0902 22.713 30.3996 23.7186 30.5415L23.8089 32.1272C23.8089 32.1272 23.8476 32.3979 23.8604 32.5913C23.8733 32.7976 23.7831 32.8878 23.9894 32.8878L27.0448 32.7589C27.2511 32.746 27.4187 32.5784 27.4058 32.3721C27.3929 32.1659 27.2124 32.0112 27.0061 32.0112L26.181 32.0369L26.0908 30.5157C26.9674 30.3868 27.7925 30.1289 28.5016 29.755C28.9142 30.3352 29.5072 30.7993 30.1776 31.07C30.6675 31.2634 31.1961 31.3537 31.7246 31.3408C32.0212 31.3279 32.3177 31.2892 32.6013 31.2119C33.1557 31.0571 33.5424 30.7606 33.7229 30.3868C33.8905 30.4125 34.071 30.4254 34.2386 30.4254C35.2442 30.3868 36.1466 29.7293 36.4174 28.7237C36.5592 28.1564 36.4947 27.5634 36.2111 27.0477C36.0306 26.7254 35.7857 26.4418 35.4763 26.2355C36.1338 25.6038 36.3658 24.624 35.9919 23.7473C35.6439 22.9093 34.8445 22.3421 33.9679 22.2518C34.071 21.8908 34.0839 21.4912 33.9808 21.1044C33.839 20.4985 33.4651 19.9828 32.9365 19.6476C32.395 19.2995 31.7633 19.1835 31.1316 19.3124C30.5128 19.4413 29.9842 19.7894 29.6361 20.3051C29.3138 20.795 28.7852 22.0327 28.4372 23.1929C27.3542 22.6515 26.0263 22.3678 24.6598 22.4194C24.1441 22.4323 23.6413 22.4968 23.1514 22.5999C23.2545 21.6459 23.4608 19.6734 23.5768 18.9128C23.8347 17.211 23.6413 16.0507 22.9838 15.3803C22.5068 14.8775 21.7848 14.6712 20.8695 14.7486C18.5747 14.942 18.3297 18.3455 18.3168 18.4873C18.3039 18.6291 18.3813 18.758 18.5102 18.8354C18.6391 18.9128 18.7809 18.9128 18.9099 18.8354C19.2193 18.6549 19.4771 18.5776 19.6834 18.6033C19.5931 18.9643 19.4771 19.48 19.4642 19.6218C19.4384 20.0344 19.606 20.4469 19.9155 20.6919ZM30.4483 28.0017C30.7577 27.4602 30.8995 26.893 30.8609 26.2999C30.7964 25.2557 30.1905 24.2888 29.1333 23.5668C29.4814 22.355 30.0229 21.1044 30.3065 20.679C30.5386 20.3309 30.8995 20.0859 31.325 19.9957C31.7504 19.9054 32.1888 19.9957 32.5497 20.2278C33.2975 20.7048 33.5295 21.6717 33.0783 22.3936C33.001 22.5226 33.001 22.6773 33.0912 22.7933C33.1815 22.9093 33.3233 22.9738 33.478 22.948C34.2515 22.8191 35.0121 23.2316 35.3087 23.9536C35.6052 24.6884 35.3087 25.5393 34.5996 25.9003C34.4707 25.9648 34.3933 26.1066 34.4062 26.2484C34.4191 26.3902 34.5222 26.5191 34.6641 26.5707C35.4634 26.8672 35.9017 27.6794 35.6954 28.4787C35.4763 29.3167 34.5867 29.8066 33.7229 29.5746C33.6842 29.5617 33.6456 29.5488 33.6069 29.5359C32.9494 29.3812 31.5313 28.7237 30.4483 28.0017ZM29.1591 29.3683C29.4943 29.1362 29.7779 28.8784 30.0229 28.6076C31.0027 29.2522 32.2145 29.8453 33.001 30.1547C32.872 30.3223 32.6142 30.4383 32.395 30.5028C31.7633 30.6704 31.0929 30.6317 30.4741 30.3996C29.9455 30.1805 29.4814 29.8195 29.1591 29.3683ZM24.5824 32.1014L24.4922 30.6059C24.7113 30.6188 24.9434 30.6188 25.1625 30.6059C25.227 30.6059 25.2915 30.6059 25.3559 30.593L25.4462 32.0627L24.5824 32.1014ZM19.735 26.6738C19.6576 25.3073 20.9081 24.0051 22.8549 23.4379C23.4479 23.2703 24.0667 23.1672 24.7242 23.1414C26.1295 23.0898 27.4702 23.4121 28.4887 24.0438C29.4685 24.6498 30.0487 25.462 30.1002 26.3257C30.126 26.8672 29.9713 27.3829 29.6103 27.8728C29.3267 28.2724 28.9271 28.6334 28.4243 28.9299C27.5218 29.4843 26.3486 29.8066 25.111 29.8453C24.7629 29.8582 24.4277 29.8453 24.0925 29.8195C23.0869 29.7293 22.1458 29.4327 21.3852 28.9815C20.4054 28.4014 19.8252 27.6149 19.735 26.7641C19.7479 26.7383 19.735 26.7125 19.735 26.6738ZM20.6503 20.9239C21.1918 20.8981 21.643 20.4598 21.7075 19.8668C21.7204 19.6734 21.6817 18.758 21.6559 18.4744C21.643 18.2681 21.4625 18.1134 21.2562 18.1134C21.05 18.1263 20.8824 18.2939 20.8953 18.5002C20.921 19.0417 20.9468 19.6863 20.9468 19.7894C20.921 20.0215 20.7405 20.2149 20.5472 20.1891C20.5343 20.1891 20.5085 20.1891 20.4956 20.1762C20.328 20.1246 20.212 19.9183 20.2378 19.6992C20.2506 19.596 20.3925 19.003 20.5085 18.4873C20.5085 18.4744 20.5085 18.4615 20.5085 18.4615V18.4486C20.5085 18.4357 20.5085 18.4357 20.5085 18.4229C20.5085 18.41 20.5085 18.41 20.5085 18.3971V18.3842C20.5085 18.3713 20.5085 18.3713 20.5085 18.3584V18.3455C20.5085 18.3326 20.5085 18.3326 20.5085 18.3197V18.3068C20.5085 18.2939 20.5085 18.2939 20.5085 18.2939V18.281C20.5085 18.281 20.5085 18.2681 20.4956 18.2681C20.4956 18.2681 20.4956 18.2553 20.4827 18.2553C20.4827 18.2553 20.4827 18.2424 20.4698 18.2424C20.4698 18.2295 20.4569 18.2295 20.4569 18.2166C20.4569 18.2166 20.4569 18.2037 20.444 18.2037L20.4311 18.1908C20.4311 18.1908 20.4311 18.1779 20.4182 18.1779L20.4054 18.165L20.3925 18.1521L20.3796 18.1392C20.3667 18.1263 20.3667 18.1263 20.3538 18.1134C20.1475 17.9587 19.7479 17.7654 19.1806 17.9072C19.3482 17.0434 19.7994 15.5866 20.9597 15.4834C21.643 15.419 22.1329 15.5479 22.4423 15.8831C22.9193 16.373 23.0482 17.3528 22.8291 18.7967C22.7002 19.6734 22.4552 22.0584 22.3778 22.832C21.398 23.1543 20.5601 23.6571 19.9541 24.2888C19.8897 24.3532 19.8381 24.4177 19.7736 24.4822C19.9799 22.9609 20.444 21.5041 20.6503 20.9239Z" fill="#961914"/>
<path d="M21.1145 16.5406C21.6044 16.5277 21.6431 17.2626 21.1532 17.2755C20.6762 17.2883 20.6246 16.5535 21.1145 16.5406Z" fill="#961914"/>
<path d="M31.428 21.1818C31.9179 21.1689 31.9566 21.9037 31.4667 21.9166C30.9897 21.9424 30.9381 21.1947 31.428 21.1818Z" fill="#961914"/>
<path d="M33.9806 24.1341C34.4705 24.1212 34.5092 24.856 34.0193 24.8689C33.5423 24.8947 33.5036 24.147 33.9806 24.1341Z" fill="#961914"/>
<path d="M34.5354 27.8986C35.0253 27.8857 35.064 28.6205 34.5741 28.6334C34.0971 28.6463 34.0455 27.9115 34.5354 27.8986Z" fill="#961914"/>
<path d="M22.3135 26.9446C22.8034 26.9317 22.8421 27.6665 22.3522 27.6794C21.8623 27.6923 21.8236 26.9575 22.3135 26.9446Z" fill="#961914"/>
</g>
<defs>
<clipPath id="clip0_6231_2908">
<rect width="60" height="60" fill="white" transform="translate(0.9375)"/>
</clipPath>
</defs>
</svg>
