<svg width="21" height="20" viewBox="0 0 21 20" fill="none" xmlns="http://www.w3.org/2000/svg">
<path d="M20.2442 3.15669C19.7627 2.69814 19.096 2.43359 18.4108 2.43359C18.4108 1.79867 18.1331 1.18138 17.6516 0.722831C16.6516 -0.22955 15.0034 -0.22955 14.0034 0.722831C13.1331 1.53412 13.022 2.78632 13.6145 3.7387L3.9664 12.9627C2.98492 12.3983 1.63307 12.4865 0.762695 13.3331C-0.237305 14.2854 -0.237305 15.8551 0.762695 16.8075C1.24418 17.266 1.91084 17.5306 2.59603 17.5306C2.59603 18.1832 2.87381 18.8181 3.35529 19.2766C4.35529 20.229 6.00344 20.229 7.00344 19.2766C7.9664 18.3595 8.00344 16.9133 7.18862 15.9609L16.7627 6.80749C17.7812 7.5835 19.2997 7.53059 20.2442 6.63112C21.2442 5.67874 21.2442 4.10908 20.2442 3.15669ZM19.3738 5.8022C18.8553 6.29602 17.9479 6.31366 17.4108 5.8022C17.3368 5.73165 17.2997 5.69638 17.2442 5.62583C17.0405 5.34364 16.6145 5.30837 16.3553 5.55528C16.3368 5.57292 5.89232 15.5553 5.85529 15.6082C5.63307 15.8727 5.6701 16.2608 5.9664 16.4548C6.65158 16.9309 6.72566 17.901 6.13307 18.4477C5.61455 18.9415 4.74418 18.9415 4.22566 18.4477C3.85529 18.095 3.72566 17.513 3.92936 17.0191C4.13307 16.5429 3.63307 16.0668 3.13307 16.2608C2.63307 16.4548 2.02195 16.3313 1.63307 15.9786C0.799732 15.1849 1.35529 13.774 2.61455 13.774C2.98492 13.774 3.33677 13.9151 3.59603 14.1444C3.83677 14.3736 4.22566 14.3736 4.4664 14.1444C15.6145 3.47415 14.9294 4.16199 15.0034 4.02089C15.1145 3.79161 15.059 3.52706 14.8738 3.3507C14.3553 2.85687 14.3553 2.02795 14.8738 1.53412C15.3923 1.04029 16.2627 1.04029 16.7812 1.53412C17.1701 1.90449 17.2812 2.43359 17.0775 2.90978C17.022 3.03324 17.022 3.19197 17.0775 3.33306C17.2071 3.63288 17.559 3.77398 17.8738 3.66816C18.3738 3.47415 18.9849 3.59761 19.3738 3.95035C19.9108 4.47945 19.9108 5.29073 19.3738 5.8022Z" fill="#961914"/>
<path d="M6.7961 7.23126C7.03684 7.46053 7.42573 7.46053 7.66647 7.23126C7.90721 7.00198 7.90721 6.63161 7.66647 6.40233L5.57387 4.40938C5.33313 4.18011 4.94425 4.18011 4.7035 4.40938C4.46276 4.63866 4.46276 5.00903 4.7035 5.23831L6.7961 7.23126Z" fill="#961914"/>
<path d="M2.29617 9.33004H5.24061C5.57395 9.33004 5.85173 9.06549 5.85173 8.74803C5.85173 8.43057 5.57395 8.16602 5.24061 8.16602H2.29617C1.96284 8.16602 1.68506 8.43057 1.68506 8.74803C1.68506 9.08312 1.96284 9.33004 2.29617 9.33004Z" fill="#961914"/>
<path d="M9.25906 5.52044C9.59239 5.52044 9.87017 5.25589 9.87017 4.93843V2.11656C9.87017 1.7991 9.59239 1.53455 9.25906 1.53455C8.92573 1.53455 8.64795 1.7991 8.64795 2.11656V4.93843C8.64795 5.25589 8.90721 5.52044 9.25906 5.52044Z" fill="#961914"/>
<path d="M14.278 12.7691C14.0372 12.5398 13.6483 12.5398 13.4076 12.7691C13.1669 12.9984 13.1669 13.3688 13.4076 13.598L15.5002 15.591C15.6113 15.6968 15.778 15.7674 15.9261 15.7674C16.4632 15.7674 16.7409 15.1324 16.352 14.7621L14.278 12.7691Z" fill="#961914"/>
<path d="M18.7777 10.6703H15.8147C15.4814 10.6703 15.2036 10.9348 15.2036 11.2523C15.2036 11.5698 15.4814 11.8343 15.8147 11.8343H18.7592C19.0925 11.8343 19.3703 11.5698 19.3703 11.2523C19.3888 10.9348 19.111 10.6703 18.7777 10.6703Z" fill="#961914"/>
<path d="M11.8147 14.4799C11.4814 14.4799 11.2036 14.7444 11.2036 15.0619V17.8661C11.2036 18.1836 11.4814 18.4481 11.8147 18.4481C12.1481 18.4481 12.4258 18.1836 12.4258 17.8661V15.0619C12.4258 14.7444 12.1481 14.4799 11.8147 14.4799Z" fill="#961914"/>
</svg>
