<svg width="43" height="53" viewBox="0 0 43 53" fill="none" xmlns="http://www.w3.org/2000/svg">
<g clip-path="url(#clip0_191_1267)">
<path d="M26.5585 22.2475C20.8766 24.3309 15.4764 27.0278 10.3683 30.2272C9.61932 30.7185 10.508 31.7794 11.2569 31.2881C16.2483 28.134 21.5849 25.5152 27.1501 23.4771C27.993 23.1903 27.404 21.9329 26.5585 22.2475Z" fill="#EAD1D0"/>
<path d="M38.4707 33.0207C36.714 39.2975 34.4063 45.4399 31.6137 51.3421C31.2582 52.1493 32.5658 52.6327 32.9491 51.8281C35.7418 45.9259 38.0215 39.7809 39.8062 33.5066C40.027 32.6312 38.7195 32.1478 38.4707 33.0207Z" fill="#EAD1D0"/>
<path d="M23.8517 5.96231C17.7355 4.17151 11.6472 2.38328 5.53098 0.592481C4.68045 0.346773 4.16763 1.64334 5.04608 1.89161C11.1623 3.6824 17.2506 5.47064 23.3668 7.26144C24.2148 7.5349 24.7276 6.23833 23.8517 5.96231Z" fill="#EAD1D0"/>
</g>
<defs>
<clipPath id="clip0_191_1267">
<rect x="38.0453" y="52.77" width="38" height="49" rx="2" transform="rotate(-174.775 38.0453 52.77)" fill="white"/>
</clipPath>
</defs>
</svg>
